<?xml version="1.0" encoding="UTF-8"?><svg xmlns="http://www.w3.org/2000/svg" viewBox="0 0 972 972"><g id="Layer_2"><polygon points="273.37 608.47 486.25 731.37 273.37 854.28 273.37 608.47" fill="#0080ff"/><path d="M273.5,608.69l212.5,122.69-212.5,122.69v-245.37M273.25,608.25v246.24l.38-.22,212.5-122.69.38-.22-.38-.22-212.5-122.69-.38-.22h0Z" fill="#231f20"/><polygon points="60.75 486 273.62 363.1 273.62 608.9 60.75 486" fill="#8000ff"/><path d="M273.5,363.31v245.37l-212.5-122.69,212.5-122.69M273.75,362.88l-.38.22-212.5,122.69-.38.22.38.22,212.5,122.69.38.22v-246.24h0Z" fill="#231f20"/><polygon points="273.37 117.72 486.25 240.63 273.37 363.53 273.37 117.72" fill="#ff007f"/><path d="M273.5,117.94l212.5,122.69-212.5,122.69V117.94M273.25,117.51v246.24l.38-.22,212.5-122.69.38-.22-.38-.22-212.5-122.69-.38-.22h0Z" fill="#231f20"/><polygon points="485.75 240.63 698.62 117.72 698.62 363.53 485.75 240.63" fill="#ff8000"/><path d="M698.5,117.94v245.37l-212.5-122.69,212.5-122.69M698.75,117.51l-.38.22-212.5,122.69-.38.22.38.22,212.5,122.69.38.22V117.51h0Z" fill="#231f20"/><polygon points="698.37 363.1 911.25 486 698.37 608.9 698.37 363.1" fill="#7fff00"/><path d="M698.5,363.31l212.5,122.69-212.5,122.69v-245.37M698.25,362.88v246.24l.38-.22,212.5-122.69.38-.22-.38-.22-212.5-122.69-.38-.22h0Z" fill="#231f20"/><polygon points="485.75 731.37 698.62 608.47 698.62 854.28 485.75 731.37" fill="#00ff7f"/><path d="M698.5,608.69v245.37s-212.5-122.69-212.5-122.69l212.5-122.69M698.75,608.25l-.38.22-212.5,122.69-.38.22.38.22,212.5,122.69.38.22v-245.81s0-.43,0-.43h0Z" fill="#231f20"/><polygon points="117.72 698.62 240.63 485.75 363.53 698.62 117.72 698.62" fill="blue"/><path d="M240.63,486l122.69,212.5H117.94l122.69-212.5M240.63,485.5l-.22.38-122.69,212.5-.22.38h246.24l-.22-.38-122.69-212.5-.22-.38h0Z" fill="#231f20"/><polygon points="117.72 273.37 363.53 273.37 240.63 486.25 117.72 273.37" fill="#f0f"/><path d="M363.31,273.5l-122.69,212.5-122.69-212.5h245.37M363.75,273.25H117.51l.22.38,122.69,212.5.22.38.22-.38,122.69-212.5.22-.38h0Z" fill="#231f20"/><polygon points="363.1 273.62 486 60.75 608.9 273.62 363.1 273.62" fill="red"/><path d="M486,61l122.69,212.5h-245.37l122.69-212.5M486,60.5l-.22.38-122.69,212.5-.22.38h246.24l-.22-.38-122.69-212.5-.22-.38h0Z" fill="#231f20"/><polygon points="608.47 273.37 854.28 273.37 731.37 486.25 608.47 273.37" fill="#ff0"/><path d="M854.06,273.5l-122.69,212.5-122.69-212.5h245.37M854.49,273.25h-246.24l.22.38,122.69,212.5.22.38.22-.38,122.69-212.5.22-.38h0Z" fill="#231f20"/><polygon points="608.47 698.62 731.37 485.75 854.28 698.62 608.47 698.62" fill="lime"/><path d="M731.37,486l122.69,212.5h-245.37l122.69-212.5M731.37,485.5l-.22.38-122.69,212.5-.22.38h246.24l-.22-.38-122.69-212.5-.22-.38h0Z" fill="#231f20"/><polygon points="363.1 698.37 608.9 698.37 486 911.25 363.1 698.37" fill="aqua"/><path d="M608.69,698.5l-122.69,212.5-122.69-212.5h245.37M609.12,698.25h-246.24l.22.38,122.69,212.5.22.38.22-.38,122.69-212.5.22-.38h0Z" fill="#231f20"/><polygon points="363.1 698.37 608.9 698.37 486 911.25 363.1 698.37" fill="aqua"/><path d="M608.69,698.5l-122.69,212.5-122.69-212.5h245.37M609.12,698.25h-246.24l.22.38,122.69,212.5.22.38.22-.38,122.69-212.5.22-.38h0Z" fill="#231f20"/><path d="M446.94,436.66v-30.6c1.14-.3,2.44-.52,3.92-.65,1.47-.14,2.82-.2,4.05-.2,4.29,0,7.55.82,9.79,2.45,2.24,1.64,3.35,4.04,3.35,7.22,0,2.31-.6,4.16-1.8,5.53-1.2,1.38-2.81,2.37-4.81,2.97.51.63,1.13,1.45,1.87,2.45.73,1.01,1.51,2.11,2.32,3.33.81,1.22,1.6,2.47,2.36,3.76.77,1.29,1.42,2.54,1.96,3.73h-3.83c-.81-1.56-1.72-3.13-2.72-4.7-1-1.57-1.99-3.05-2.95-4.43-.96-1.38-1.82-2.54-2.57-3.47-.84.09-1.7.14-2.56.14h-4.86v12.46h-3.51ZM450.45,421.27h3.96c1.89,0,3.58-.14,5.08-.43,1.5-.28,2.69-.89,3.58-1.82.88-.93,1.33-2.32,1.33-4.19s-.43-3.13-1.28-4.07c-.86-.94-1.98-1.6-3.38-1.98-1.4-.38-2.89-.56-4.48-.56-1.05,0-1.98.04-2.79.11-.81.08-1.49.14-2.03.2v12.73Z" fill="red" stroke="#231f20" stroke-miterlimit="10" stroke-width=".25"/><path d="M487.8,437.29c-2.76,0-5.23-.63-7.4-1.89-2.18-1.26-3.89-3.1-5.13-5.51-1.25-2.41-1.87-5.36-1.87-8.84s.67-6.43,2-8.84c1.33-2.41,3.12-4.25,5.36-5.51,2.23-1.26,4.7-1.89,7.4-1.89,2.37,0,4.32.25,5.85.76,1.53.51,2.62.98,3.28,1.4l-1.12,2.97c-.84-.6-1.97-1.09-3.4-1.46-1.42-.38-2.96-.56-4.61-.56-2.1,0-3.98.5-5.65,1.48-1.67.99-2.99,2.46-3.96,4.41-.98,1.95-1.46,4.36-1.46,7.24,0,3.99.94,7.19,2.81,9.59,1.88,2.4,4.67,3.6,8.39,3.6,1.44,0,2.65-.08,3.62-.25.97-.16,1.64-.31,2-.43v-11.83h3.51v14.08c-.57.24-1.7.55-3.4.92-1.7.38-3.77.56-6.23.56Z" fill="lime" stroke="#231f20" stroke-miterlimit="10" stroke-width=".25"/><path d="M512.28,436.93c-.72,0-1.57-.04-2.54-.11-.97-.08-1.93-.17-2.86-.29-.93-.12-1.73-.27-2.38-.45v-30.02c1.14-.3,2.46-.52,3.96-.65,1.5-.14,2.83-.2,4-.2,2.31,0,4.42.25,6.32.74,1.9.5,3.43,1.33,4.59,2.52,1.15,1.19,1.73,2.81,1.73,4.88,0,1.62-.41,3.02-1.24,4.19-.83,1.17-1.94,2-3.35,2.48,1.8.48,3.27,1.31,4.41,2.5,1.14,1.19,1.71,2.95,1.71,5.29,0,3-1.18,5.27-3.53,6.82-2.36,1.55-5.96,2.32-10.82,2.32ZM507.96,418.93h5.67c1.5,0,2.84-.15,4.03-.45,1.18-.3,2.12-.85,2.81-1.64.69-.79,1.03-1.91,1.03-3.35,0-1.95-.82-3.32-2.45-4.12-1.64-.79-3.79-1.19-6.46-1.19-2.04,0-3.59.09-4.64.27v10.48ZM512.64,433.96c1.8,0,3.49-.16,5.06-.49,1.57-.33,2.84-.95,3.8-1.85s1.44-2.19,1.44-3.87c0-2.31-.78-3.87-2.34-4.68-1.56-.81-3.69-1.22-6.39-1.22h-6.25v11.83c.48.06,1.16.12,2.03.18.87.06,1.75.09,2.66.09Z" fill="blue" stroke="#231f20" stroke-miterlimit="10" stroke-width=".25"/><path d="M448.58,482.33c-2.73,0-5.18-.63-7.36-1.89-2.18-1.26-3.89-3.1-5.13-5.51-1.25-2.41-1.87-5.38-1.87-8.89,0-2.61.39-4.93,1.17-6.95s1.85-3.73,3.22-5.11c1.36-1.38,2.92-2.42,4.68-3.13,1.75-.7,3.59-1.06,5.51-1.06,2.37,0,4.3.27,5.78.81,1.49.54,2.5.98,3.04,1.3l-1.12,2.97c-.75-.45-1.72-.88-2.9-1.31-1.19-.42-2.62-.63-4.3-.63-2.46,0-4.54.55-6.23,1.64-1.7,1.1-2.98,2.63-3.85,4.59-.87,1.97-1.3,4.27-1.3,6.91s.42,4.94,1.26,6.91c.84,1.97,2.08,3.49,3.71,4.57,1.63,1.08,3.64,1.62,6.01,1.62,1.98,0,3.63-.19,4.95-.56,1.32-.37,2.34-.76,3.06-1.15l.95,2.97c-.48.3-1.52.69-3.13,1.17-1.61.48-3.65.72-6.14.72Z"/><path d="M472.16,482.2c-2.07,0-3.92-.5-5.54-1.51-1.62-1-2.89-2.42-3.8-4.25-.92-1.83-1.37-3.97-1.37-6.43s.46-4.6,1.37-6.41c.92-1.81,2.18-3.23,3.8-4.25,1.62-1.02,3.46-1.53,5.54-1.53s3.96.51,5.58,1.53c1.62,1.02,2.89,2.44,3.8,4.25.92,1.82,1.37,3.95,1.37,6.41s-.46,4.61-1.37,6.43c-.92,1.83-2.17,3.25-3.78,4.25-1.61,1-3.47,1.51-5.6,1.51ZM472.16,479.18c2.22,0,3.98-.82,5.29-2.48,1.3-1.65,1.96-3.88,1.96-6.7s-.65-5.02-1.96-6.68-3.07-2.5-5.29-2.5-3.94.83-5.24,2.5c-1.3,1.67-1.96,3.89-1.96,6.68s.65,5.06,1.96,6.7c1.31,1.65,3.05,2.48,5.24,2.48Z"/><path d="M495.43,482.06c-2.19-.09-3.8-.59-4.82-1.51-1.02-.91-1.53-2.5-1.53-4.75v-28.48l3.38-.58v28.84c0,1.44.26,2.37.79,2.79.52.42,1.42.72,2.68.9l-.5,2.79Z"/><path d="M510.28,482.2c-2.07,0-3.92-.5-5.53-1.51-1.62-1-2.89-2.42-3.8-4.25-.92-1.83-1.37-3.97-1.37-6.43s.46-4.6,1.37-6.41c.91-1.81,2.18-3.23,3.8-4.25,1.62-1.02,3.46-1.53,5.53-1.53s3.96.51,5.58,1.53c1.62,1.02,2.89,2.44,3.8,4.25.92,1.82,1.37,3.95,1.37,6.41s-.46,4.61-1.37,6.43c-.92,1.83-2.18,3.25-3.78,4.25-1.6,1-3.47,1.51-5.6,1.51ZM510.28,479.18c2.22,0,3.98-.82,5.29-2.48,1.3-1.65,1.96-3.88,1.96-6.7s-.65-5.02-1.96-6.68c-1.31-1.67-3.07-2.5-5.29-2.5s-3.94.83-5.24,2.5-1.96,3.89-1.96,6.68.65,5.06,1.96,6.7c1.3,1.65,3.05,2.48,5.24,2.48Z"/><path d="M527.24,481.66v-22.23c.78-.33,1.85-.67,3.22-1.01,1.37-.34,3.01-.52,4.93-.52.93,0,1.84.08,2.75.22.9.15,1.53.3,1.89.45l-.67,2.88c-.27-.12-.78-.25-1.53-.38-.75-.14-1.71-.2-2.88-.2s-2.08.08-2.83.25c-.75.17-1.25.31-1.48.43v20.12h-3.38Z"/><path d="M430.63,526.66c-1.08-3.03-2.05-6.14-2.9-9.34-.85-3.19-1.65-6.59-2.38-10.19-.74-3.6-1.46-7.48-2.18-11.65h3.64c.57,3.36,1.19,6.67,1.85,9.92.66,3.26,1.34,6.34,2.05,9.25s1.4,5.53,2.09,7.88c1.26-3.27,2.6-6.83,4.03-10.69,1.42-3.86,2.81-8.05,4.16-12.58h3.01c1.35,4.53,2.74,8.74,4.16,12.62s2.8,7.43,4.12,10.64c.66-2.31,1.33-4.91,2-7.81.67-2.89,1.34-5.98,2-9.25.66-3.27,1.29-6.6,1.89-9.99h3.51c-.72,4.17-1.46,8.05-2.23,11.65-.76,3.6-1.57,7-2.43,10.19-.85,3.2-1.81,6.31-2.86,9.34h-3.64c-1.41-3.36-2.78-6.79-4.1-10.28-1.32-3.5-2.67-7.39-4.05-11.68-1.35,4.29-2.7,8.18-4.05,11.68-1.35,3.49-2.72,6.92-4.09,10.28h-3.6Z"/><path d="M466.99,526.66v-34.33l3.38-.59v12.2c.87-.33,1.79-.58,2.77-.77.97-.18,1.93-.27,2.86-.27,2.46,0,4.37.45,5.72,1.35,1.35.9,2.3,2.15,2.86,3.76.55,1.61.83,3.47.83,5.6v13.05h-3.38v-12.11c0-2.13-.2-3.82-.58-5.08s-1.05-2.18-1.98-2.74c-.93-.57-2.24-.86-3.92-.86-.63,0-1.31.07-2.05.2-.74.14-1.39.28-1.96.43-.57.15-.96.27-1.17.36v19.8h-3.38Z"/><path d="M502.9,527.15c-2.73,0-4.94-.53-6.64-1.58-1.7-1.05-2.94-2.49-3.74-4.32-.79-1.83-1.19-3.91-1.19-6.25,0-2.73.5-5,1.49-6.79.99-1.8,2.27-3.15,3.85-4.05s3.23-1.35,4.97-1.35c2.91,0,5.23.94,6.95,2.81,1.72,1.88,2.59,4.76,2.59,8.66,0,.21,0,.46-.02.74-.02.29-.04.55-.07.79h-16.24c.12,2.64.83,4.69,2.14,6.14,1.31,1.46,3.34,2.18,6.1,2.18,1.53,0,2.78-.14,3.76-.43.97-.29,1.67-.53,2.09-.74l.58,2.83c-.42.24-1.24.53-2.45.86s-2.6.5-4.16.5ZM494.93,513.07h12.83c-.03-2.28-.57-4.07-1.62-5.38-1.05-1.3-2.54-1.96-4.46-1.96-1.32,0-2.48.34-3.46,1.04-.99.69-1.76,1.59-2.32,2.7-.55,1.11-.88,2.31-.97,3.6Z"/><path d="M527.74,527.15c-2.73,0-4.94-.53-6.64-1.58-1.7-1.05-2.94-2.49-3.74-4.32-.79-1.83-1.19-3.91-1.19-6.25,0-2.73.5-5,1.49-6.79.99-1.8,2.27-3.15,3.85-4.05s3.23-1.35,4.97-1.35c2.91,0,5.23.94,6.95,2.81,1.72,1.88,2.59,4.76,2.59,8.66,0,.21,0,.46-.02.74-.02.29-.04.55-.07.79h-16.24c.12,2.64.83,4.69,2.14,6.14,1.31,1.46,3.34,2.18,6.1,2.18,1.53,0,2.78-.14,3.76-.43.97-.29,1.67-.53,2.09-.74l.58,2.83c-.42.24-1.24.53-2.45.86s-2.6.5-4.16.5ZM519.77,513.07h12.83c-.03-2.28-.57-4.07-1.62-5.38-1.05-1.3-2.54-1.96-4.46-1.96-1.32,0-2.48.34-3.46,1.04-.99.69-1.76,1.59-2.32,2.7-.55,1.11-.88,2.31-.97,3.6Z"/><path d="M548.66,527.06c-2.19-.09-3.8-.59-4.82-1.51-1.02-.92-1.53-2.5-1.53-4.75v-28.48l3.38-.59v28.85c0,1.44.26,2.37.79,2.79.52.42,1.42.72,2.68.9l-.5,2.79Z"/></g><g id="Layer_7"><g id="inner_hex"><circle cx="486" cy="486" r="193.5" fill="none"/><path d="M363.92,331.2l-1.68,1.39,2.01,2.99-1.11.92-2.01-2.99-1.92,1.59,2.01,2.99-1.11.92-2.01-2.99-1.6,1.33-.81-.98,1.7-1.41-1.91-2.86-1.59,1.31-.81-.98,1.69-1.4-1.8-2.69,1.1-.91,1.81,2.69,1.93-1.59-1.8-2.69,1.11-.92,1.79,2.7,1.62-1.34.81.98-1.72,1.42,1.92,2.85,1.58-1.31.81.98ZM360.42,332.45l-1.92-2.85-1.93,1.59,1.92,2.85,1.93-1.59Z"/><path d="M367.5,318.93l-4.36,3.22,2.46,3.33,4.13-3.05.86,1.17-4.13,3.05,3.38,4.57-1.43,1.06-7.58-10.27,5.79-4.27.88,1.19Z"/><path d="M377,312.57l-4.53,2.97,2.27,3.46,4.3-2.81.8,1.22-4.3,2.82,3.12,4.75-1.49.97-7-10.68,6.02-3.94.81,1.24Z"/><path d="M390.13,310.51c.49.85.85,1.67,1.08,2.46.23.79.32,1.54.27,2.24-.06.7-.26,1.33-.61,1.9-.35.57-.87,1.05-1.56,1.45-.59.34-1.19.54-1.81.6s-1.23-.05-1.84-.31c-.61-.26-1.22-.7-1.82-1.31s-1.18-1.4-1.75-2.38c-.49-.85-.85-1.67-1.08-2.47-.23-.8-.32-1.55-.27-2.24.05-.7.26-1.33.61-1.9.35-.57.87-1.05,1.56-1.45.59-.34,1.19-.54,1.81-.6.61-.06,1.23.05,1.84.31.61.27,1.22.7,1.82,1.31.6.61,1.18,1.4,1.75,2.38ZM383.56,314.25c.1.17.2.35.31.52.1.17.21.34.32.49l2.68-6.16c-.25-.24-.51-.44-.78-.6-.27-.16-.54-.28-.82-.34-.28-.07-.56-.08-.85-.04-.29.04-.57.14-.86.31-.38.22-.68.52-.88.88-.21.37-.31.8-.32,1.29s.09,1.05.28,1.66c.2.61.5,1.28.91,1.99ZM388.67,311.42c-.11-.19-.23-.38-.35-.56-.12-.18-.25-.36-.37-.53l-2.67,6.18c.25.24.52.45.79.63.27.17.55.3.84.37s.57.09.87.05.59-.14.88-.31c.38-.22.68-.52.88-.88.21-.37.31-.8.32-1.29,0-.49-.09-1.05-.28-1.66-.2-.61-.5-1.28-.92-1.99Z"/><path d="M400.07,305.43c.44.87.75,1.71.94,2.52s.24,1.56.14,2.25-.33,1.31-.72,1.86c-.38.55-.93,1-1.64,1.36-.61.31-1.22.47-1.84.5-.62.02-1.22-.11-1.82-.41-.6-.3-1.18-.77-1.74-1.41-.56-.64-1.1-1.47-1.61-2.48-.44-.87-.75-1.71-.94-2.52-.19-.81-.23-1.56-.14-2.25.09-.69.33-1.31.72-1.86.39-.55.93-1,1.63-1.36.61-.31,1.22-.47,1.84-.5.62-.02,1.22.12,1.82.42.6.3,1.18.77,1.74,1.41.56.64,1.1,1.47,1.61,2.48ZM393.3,308.79c.09.18.18.36.28.54.09.18.19.35.29.51l3.02-6c-.24-.25-.48-.47-.74-.64-.26-.18-.52-.31-.8-.39-.28-.08-.56-.11-.85-.09s-.58.11-.88.26c-.4.2-.71.48-.93.83-.23.35-.35.78-.39,1.27s.03,1.05.19,1.68c.16.62.43,1.3.8,2.04ZM398.56,306.26c-.1-.2-.21-.39-.32-.58-.11-.19-.23-.37-.34-.55l-3.01,6.02c.24.26.49.48.75.67.26.19.53.33.82.41.28.09.57.12.86.1.29-.02.59-.11.9-.26.4-.2.71-.48.93-.83.23-.35.36-.78.39-1.27s-.03-1.05-.19-1.67c-.16-.62-.43-1.3-.8-2.04Z"/><path d="M408.03,296.65l-.43,12.39-1.78.78.61-12.47-6.32,2.76-.63-1.45,7.91-3.46.63,1.45Z"/><path d="M418.16,292.69l-5.08,1.89,1.44,3.88,4.82-1.79.51,1.36-4.81,1.79,1.98,5.33-1.67.62-4.44-11.96,6.75-2.51.52,1.39Z"/><circle cx="486" cy="486" r="193.5" fill="none"/><path d="M558.75,302.72l-2.04-.76-1.58,3.24-1.35-.5,1.58-3.23-2.34-.87-1.58,3.23-1.35-.5,1.58-3.24-1.95-.72.44-1.19,2.07.77,1.52-3.08-1.93-.72.44-1.19,2.05.76,1.43-2.91,1.34.5-1.42,2.91,2.34.87,1.43-2.91,1.35.5-1.44,2.9,1.97.73-.44,1.19-2.09-.77-1.51,3.09,1.92.71-.44,1.19ZM555.92,300.32l1.51-3.09-2.34-.87-1.51,3.09,2.34.87Z"/><path d="M571.16,299.68l-4.97-2.17-1.66,3.8,4.71,2.05-.58,1.33-4.71-2.05-2.27,5.21-1.63-.71,5.1-11.7,6.6,2.88-.59,1.36Z"/><path d="M581.43,304.73l-4.84-2.44-1.87,3.7,4.59,2.31-.66,1.3-4.59-2.31-2.56,5.07-1.59-.8,5.75-11.4,6.43,3.24-.67,1.33Z"/><path d="M587.93,317.68c-.27.47-.61.83-1.01,1.08-.4.25-.85.4-1.33.45s-1,0-1.54-.14c-.54-.14-1.09-.37-1.63-.68-.6-.35-1.1-.72-1.48-1.12-.38-.4-.66-.81-.83-1.23-.17-.42-.24-.84-.2-1.27s.17-.84.4-1.24c.39-.68.92-1.15,1.58-1.42.66-.27,1.5-.38,2.52-.33-.51-.78-.8-1.49-.88-2.13-.07-.64.06-1.25.39-1.83.21-.35.48-.66.82-.9s.73-.42,1.18-.5c.45-.09.94-.08,1.47.02s1.1.33,1.71.68c.57.33,1.03.68,1.4,1.05.36.37.62.75.79,1.15.16.4.23.79.19,1.2s-.17.81-.4,1.2c-.37.64-.87,1.09-1.48,1.33-.62.24-1.36.35-2.21.3.23.35.43.71.6,1.07.17.36.29.72.36,1.08s.07.73.02,1.09c-.06.37-.19.73-.4,1.1ZM586.27,316.87c.12-.21.2-.43.25-.67.05-.24.04-.5-.03-.79-.06-.29-.19-.62-.37-.98s-.44-.77-.77-1.24c-.49-.04-.92-.04-1.29,0-.37.03-.69.1-.96.19s-.5.23-.68.39c-.18.16-.34.36-.47.58-.15.25-.22.51-.22.77,0,.26.05.51.17.76.11.25.28.48.51.7.23.22.49.42.8.6.3.17.6.3.9.4.3.09.58.13.85.11.27-.01.51-.09.74-.22.22-.13.42-.33.57-.6ZM589.48,310.95c.29-.5.33-.98.12-1.43-.21-.45-.64-.86-1.27-1.22-.63-.36-1.19-.53-1.69-.49-.49.04-.88.3-1.16.79-.13.22-.2.45-.22.68-.02.23,0,.49.09.75.08.27.21.55.39.87.17.31.4.65.67,1.03.81.07,1.46.03,1.96-.11.5-.15.87-.43,1.12-.86Z"/><path d="M599.17,321.16c-.53.82-1.1,1.51-1.71,2.07s-1.23.98-1.88,1.25c-.65.26-1.3.37-1.97.31-.67-.06-1.33-.31-2-.74-.57-.37-1.02-.82-1.35-1.34-.33-.52-.51-1.11-.55-1.78s.08-1.4.35-2.21c.27-.81.72-1.69,1.34-2.64.54-.82,1.11-1.51,1.71-2.08.61-.57,1.24-.98,1.88-1.25.65-.27,1.3-.37,1.97-.31s1.33.31,1.99.74c.57.37,1.02.82,1.35,1.34.33.52.51,1.12.55,1.78s-.08,1.41-.35,2.21c-.27.81-.72,1.69-1.34,2.64ZM597.7,320.27c.12-.19.23-.37.34-.56s.21-.38.31-.56l-6.72.4c-.1.34-.17.67-.2.99-.03.32-.01.63.05.91.06.29.18.55.34.8.16.24.39.46.68.65.37.24.77.37,1.19.39s.85-.08,1.3-.3c.44-.21.9-.55,1.35-1,.46-.45.91-1.02,1.37-1.71ZM592.87,316.97c-.11.17-.22.34-.33.51-.11.17-.21.34-.29.51l6.71-.39c.1-.33.16-.65.19-.96.02-.31,0-.61-.06-.89s-.18-.54-.34-.78-.38-.45-.66-.63c-.37-.24-.77-.37-1.19-.39s-.85.08-1.3.3c-.45.22-.9.55-1.36,1-.46.45-.91,1.02-1.37,1.71Z"/><path d="M608.18,327.74c-.58.79-1.19,1.45-1.82,1.98-.63.53-1.28.91-1.94,1.14s-1.32.29-1.98.2c-.66-.1-1.31-.38-1.95-.85-.55-.41-.97-.88-1.27-1.42-.3-.54-.45-1.14-.45-1.81,0-.67.15-1.39.47-2.19s.81-1.65,1.48-2.56c.58-.79,1.19-1.45,1.83-1.98s1.29-.91,1.95-1.14,1.32-.3,1.98-.2,1.31.38,1.95.85c.55.41.97.88,1.27,1.42s.45,1.14.45,1.81-.16,1.4-.47,2.19c-.32.79-.81,1.65-1.48,2.56ZM606.76,326.76c.13-.18.25-.36.37-.54.12-.19.23-.37.34-.55l-6.73.03c-.12.33-.21.66-.26.97-.05.32-.05.62,0,.92.05.29.15.56.3.81.15.25.36.48.64.69.36.26.74.41,1.16.46.42.04.85-.03,1.31-.22.46-.19.92-.5,1.41-.92.48-.42.97-.97,1.46-1.64ZM602.13,323.2c-.12.16-.24.33-.35.49-.12.16-.22.33-.32.49h6.72c.12-.34.2-.65.24-.96.04-.31.04-.6-.01-.89-.05-.28-.15-.55-.3-.8-.15-.25-.36-.47-.62-.67-.36-.26-.74-.41-1.16-.46-.42-.04-.86.03-1.31.23-.46.19-.93.5-1.41.93-.48.42-.97.97-1.46,1.64Z"/><path d="M616.83,334.82c-.62.75-1.26,1.38-1.93,1.87-.66.5-1.33.84-2,1.03-.67.19-1.34.22-1.99.09-.66-.13-1.29-.45-1.9-.96-.53-.44-.92-.93-1.19-1.49s-.38-1.16-.35-1.83.23-1.38.59-2.16c.36-.77.9-1.6,1.62-2.47.62-.75,1.27-1.38,1.93-1.87.67-.5,1.34-.84,2.01-1.03.67-.19,1.33-.22,1.99-.09.66.13,1.29.45,1.9.95.53.44.92.93,1.19,1.49.27.56.38,1.17.35,1.83s-.23,1.39-.6,2.16c-.36.77-.9,1.6-1.62,2.47ZM615.47,333.77c.14-.17.27-.35.4-.52.13-.18.25-.35.37-.53l-6.72-.35c-.14.32-.24.64-.31.96s-.08.62-.05.91.12.57.25.83c.14.26.34.5.6.72.34.28.72.46,1.13.52.42.06.86.01,1.32-.15.47-.16.95-.44,1.46-.84.51-.4,1.02-.91,1.55-1.55ZM611.04,329.96c-.13.16-.26.31-.38.47s-.24.32-.35.47l6.71.36c.14-.32.23-.63.29-.94.06-.31.07-.6.04-.89-.03-.29-.12-.56-.25-.81-.13-.26-.33-.49-.59-.7-.34-.28-.72-.46-1.14-.52-.42-.06-.86-.01-1.32.15-.47.17-.95.45-1.46.85s-1.02.91-1.55,1.55Z"/><circle cx="486" cy="486" r="193.5" fill="none"/><path d="M681.1,457.59l-.36-2.15-3.59.24-.24-1.43,3.59-.24-.41-2.46-3.59.24-.24-1.43,3.59-.24-.34-2.05,1.25-.21.37,2.18,3.43-.22-.34-2.03,1.25-.21.36,2.16,3.23-.21.24,1.41-3.23.22.41,2.47,3.23-.21.24,1.43-3.23.2.35,2.07-1.25.21-.37-2.2-3.43.23.34,2.02-1.25.21ZM681.78,453.94l3.43-.23-.42-2.47-3.43.23.41,2.47Z"/><path d="M689.89,467.43l-11.7-4.08-.21-1.93,11.73,4.29-.76-6.85,1.57-.17.95,8.58-1.57.17Z"/><path d="M690.67,478.27l-.3-5.41-4.13.23.28,5.13-1.45.08-.28-5.13-5.67.31-.1-1.77,12.74-.7.4,7.19-1.48.08Z"/><path d="M690.84,489.48l-.09-5.42-4.14.07.08,5.14-1.46.02-.08-5.14-5.68.09-.03-1.78,12.76-.21.12,7.2-1.48.02Z"/><path d="M690.26,501.12l.3-5.41-4.13-.23-.28,5.13-1.45-.08.28-5.13-5.67-.31.1-1.77,12.75.7-.4,7.19-1.48-.08Z"/><path d="M684.13,512.91c-.97-.11-1.84-.3-2.62-.59-.78-.28-1.43-.65-1.96-1.11-.53-.46-.92-1-1.17-1.62-.25-.62-.33-1.33-.24-2.12.08-.68.27-1.28.59-1.81.32-.53.76-.96,1.34-1.3.57-.34,1.28-.57,2.13-.69s1.83-.12,2.96,0c.97.11,1.85.3,2.63.59.78.29,1.43.66,1.96,1.11s.92.99,1.17,1.62c.25.62.33,1.33.24,2.11-.08.68-.27,1.28-.59,1.81s-.76.96-1.34,1.29c-.58.34-1.29.56-2.13.69-.85.12-1.83.12-2.96,0ZM684.27,511.19c.22.02.44.04.66.05s.43.01.64.02l-3.39-5.81c-.35.06-.67.15-.97.27-.3.12-.57.27-.79.46-.23.19-.41.41-.56.67-.14.26-.23.56-.27.9-.05.44.01.85.19,1.23.17.38.46.72.85,1.02.39.3.89.55,1.5.76s1.33.35,2.15.44ZM685.03,505.4c-.2-.02-.4-.04-.6-.06-.2-.02-.4-.03-.59-.03l3.37,5.81c.34-.06.66-.15.94-.27.29-.12.54-.27.76-.46.22-.19.4-.4.54-.66s.23-.54.26-.88c.05-.44-.01-.85-.19-1.23-.17-.38-.46-.72-.85-1.02-.4-.3-.9-.55-1.51-.76-.61-.21-1.33-.35-2.15-.44Z"/><path d="M682.33,523.95c-.96-.16-1.83-.41-2.59-.73-.76-.33-1.39-.73-1.89-1.22-.5-.49-.86-1.05-1.07-1.68-.21-.63-.25-1.34-.12-2.12.11-.67.34-1.27.69-1.78.35-.51.82-.92,1.41-1.22.59-.3,1.31-.49,2.17-.57.85-.08,1.83-.02,2.95.17.96.16,1.83.41,2.59.74.76.33,1.4.74,1.9,1.22s.86,1.04,1.07,1.68c.21.64.25,1.34.12,2.12-.11.67-.34,1.27-.69,1.78-.35.51-.82.92-1.41,1.22-.6.3-1.32.49-2.17.57-.85.07-1.83.02-2.95-.17ZM682.56,522.24c.22.04.44.07.65.09.22.02.43.04.64.05l-3.06-5.99c-.35.04-.68.11-.99.21-.31.1-.58.24-.82.41s-.43.39-.59.63c-.16.25-.26.54-.32.88-.07.44-.03.85.12,1.24.15.39.42.75.79,1.07.38.32.86.6,1.46.84.6.24,1.3.43,2.12.56ZM683.64,516.5c-.2-.03-.4-.07-.6-.1-.2-.03-.39-.05-.58-.06l3.04,5.99c.34-.04.66-.11.96-.22.29-.1.56-.24.79-.41s.42-.38.58-.63.26-.53.31-.86c.07-.44.03-.85-.12-1.24-.15-.39-.42-.75-.8-1.07-.38-.32-.87-.6-1.46-.84-.6-.24-1.3-.43-2.12-.56Z"/><circle cx="486" cy="486" r="193.5" fill="none"/><path d="M290.9,514.41l.36,2.15,3.59-.24.24,1.42-3.59.24.41,2.46,3.59-.24.24,1.42-3.59.24.34,2.05-1.25.21-.37-2.18-3.43.22.34,2.03-1.25.21-.36-2.16-3.23.21-.24-1.41,3.23-.22-.41-2.46-3.23.21-.24-1.42,3.23-.2-.35-2.07,1.25-.21.37,2.2,3.43-.23-.34-2.02,1.25-.21ZM290.22,518.06l-3.43.23.41,2.47,3.43-.23-.41-2.47Z"/><path d="M290.03,503.63c.54-.06,1.03,0,1.47.17.44.17.83.44,1.16.8s.6.8.81,1.33c.21.52.35,1.09.42,1.72.08.69.07,1.31-.03,1.86s-.26,1.01-.5,1.4c-.24.39-.54.69-.9.92s-.77.36-1.23.41c-.78.09-1.47-.06-2.08-.43-.61-.37-1.2-.98-1.76-1.84-.33.88-.73,1.53-1.2,1.97-.47.44-1.04.7-1.71.77-.41.05-.81,0-1.21-.12-.4-.12-.77-.34-1.1-.65-.33-.31-.62-.71-.85-1.2-.23-.49-.39-1.08-.47-1.78-.07-.65-.07-1.24.02-1.75.08-.51.24-.95.46-1.31.22-.37.51-.65.86-.86s.75-.34,1.2-.39c.74-.08,1.39.05,1.95.41.56.35,1.08.89,1.55,1.6.15-.4.31-.77.5-1.12.19-.35.41-.66.66-.93s.54-.49.87-.66c.33-.17.7-.28,1.12-.33ZM283.69,506.36c-.58.06-.98.31-1.22.75-.24.44-.31,1.02-.23,1.75.08.73.28,1.27.6,1.65.32.37.76.53,1.32.47.25-.03.48-.1.68-.22.2-.12.39-.29.55-.52s.32-.5.47-.82c.15-.32.29-.71.43-1.15-.42-.69-.84-1.2-1.25-1.51s-.86-.44-1.35-.39ZM290.36,505.45c-.24.03-.47.09-.69.19-.22.1-.43.27-.62.49s-.39.52-.57.88c-.18.36-.36.81-.54,1.36.26.42.52.76.76,1.04s.48.5.72.66c.24.16.48.27.72.32s.49.06.75.04c.29-.03.54-.12.75-.28.21-.15.38-.34.51-.58s.22-.51.26-.83.05-.65,0-1c-.04-.34-.11-.66-.21-.96-.1-.3-.24-.55-.41-.75s-.37-.36-.61-.47c-.24-.1-.51-.14-.82-.1Z"/><path d="M286.17,492.53c.98-.05,1.87,0,2.68.15.81.15,1.52.41,2.12.77s1.07.83,1.42,1.4c.35.57.54,1.25.59,2.05.04.68-.06,1.31-.28,1.88-.23.57-.59,1.07-1.11,1.5s-1.17.77-1.99,1.03c-.81.26-1.79.42-2.92.48-.98.05-1.87,0-2.69-.15-.82-.15-1.52-.41-2.12-.77-.6-.36-1.07-.83-1.42-1.4-.35-.57-.54-1.25-.59-2.04-.04-.68.06-1.31.28-1.88s.6-1.07,1.11-1.5c.51-.43,1.18-.77,1.99-1.03.81-.26,1.79-.42,2.92-.48ZM286.53,500.08c.2-.01.4-.02.6-.04.2-.01.4-.04.58-.07l-4.29-5.17c-.33.12-.62.26-.89.42-.27.17-.49.36-.68.58-.19.22-.33.46-.42.74s-.13.57-.12.91c.02.44.15.84.39,1.19s.57.64,1.01.87c.44.23.98.4,1.61.5.64.1,1.37.13,2.19.08ZM286.33,494.24c-.22.01-.44.03-.66.06s-.43.06-.64.09l4.3,5.17c.33-.12.64-.26.92-.42.28-.17.51-.36.71-.58.19-.22.34-.47.44-.75.1-.28.14-.59.12-.93-.02-.44-.15-.84-.39-1.19-.23-.35-.57-.64-1.01-.87s-.97-.4-1.61-.5c-.63-.1-1.36-.13-2.19-.08Z"/><path d="M286.2,481.22c.98.02,1.87.13,2.67.34.8.21,1.49.52,2.06.92.57.41,1.01.91,1.31,1.5s.45,1.29.44,2.08c-.01.68-.15,1.3-.42,1.86s-.67,1.03-1.21,1.42c-.54.39-1.23.68-2.06.88s-1.81.29-2.94.27c-.98-.02-1.87-.13-2.67-.34s-1.49-.52-2.06-.92-1.01-.9-1.31-1.5c-.31-.6-.45-1.29-.44-2.08.01-.68.15-1.3.42-1.86.27-.56.67-1.03,1.21-1.42.54-.39,1.23-.68,2.06-.88.83-.2,1.81-.29,2.94-.27ZM286.02,488.78c.2,0,.4,0,.61,0s.4,0,.59-.03l-3.91-5.46c-.33.09-.64.21-.91.36-.28.15-.51.32-.72.53s-.36.44-.48.71c-.11.27-.17.56-.18.9,0,.44.09.85.3,1.21.21.36.52.68.95.94.42.26.95.46,1.57.61.63.15,1.35.23,2.18.24ZM286.23,482.94c-.22,0-.44,0-.66.01-.22.01-.43.03-.64.04l3.93,5.47c.34-.09.65-.21.94-.36.29-.14.54-.32.75-.53s.37-.45.49-.72c.12-.27.18-.57.19-.92,0-.44-.09-.85-.3-1.21s-.52-.68-.94-.94-.94-.46-1.57-.61-1.35-.23-2.18-.24Z"/><path d="M286.68,470.21c.98.05,1.86.2,2.65.44s1.46.57,2.02,1c.55.43.97.94,1.25,1.55.28.61.4,1.3.36,2.1-.04.68-.2,1.3-.49,1.84-.29.55-.71,1-1.26,1.37s-1.25.64-2.09.8c-.84.17-1.82.22-2.95.16-.97-.05-1.86-.2-2.66-.44-.79-.24-1.47-.58-2.02-1-.55-.43-.97-.94-1.25-1.55-.28-.61-.4-1.31-.36-2.09.04-.68.2-1.3.49-1.84s.71-1,1.27-1.37c.56-.37,1.26-.63,2.09-.8.84-.17,1.82-.22,2.95-.16ZM286.21,477.75c.2.01.4.02.6.03s.4,0,.59,0l-3.69-5.61c-.34.08-.65.19-.93.32-.28.13-.53.3-.74.5-.21.2-.38.43-.5.69-.12.26-.2.56-.21.89-.02.44.06.85.26,1.22.19.37.5.7.91.97s.93.5,1.55.67c.62.17,1.34.28,2.17.32ZM286.65,471.93c-.22-.01-.44-.02-.66-.01-.22,0-.43.01-.64.02l3.71,5.61c.34-.08.66-.19.96-.32s.55-.3.77-.5c.22-.2.39-.43.52-.7.13-.26.2-.57.22-.91.02-.44-.06-.85-.26-1.22-.19-.37-.5-.7-.9-.97-.41-.28-.92-.5-1.54-.67-.62-.17-1.34-.28-2.17-.32Z"/><path d="M282.89,459.48l-.6,5.39,4.12.46.57-5.11,1.45.16-.57,5.11,5.65.63-.2,1.77-12.69-1.41.79-7.15,1.48.16Z"/><path d="M284.68,448.17l-.9,5.34,4.08.69.85-5.07,1.43.24-.85,5.07,5.6.94-.29,1.75-12.59-2.12,1.19-7.1,1.46.25Z"/><circle cx="486" cy="486" r="210" fill="none"/><path d="M299.85,572.19l-1.2-2.8-4.81,1.5-.79-1.86,4.81-1.5-1.37-3.21-4.81,1.5-.79-1.86,4.81-1.5-1.14-2.68,1.64-.7,1.21,2.84,4.6-1.42-1.13-2.65,1.63-.7,1.2,2.82,4.33-1.34.78,1.84-4.33,1.35,1.37,3.22,4.33-1.34.79,1.86-4.34,1.33,1.15,2.71-1.64.7-1.22-2.87-4.59,1.43,1.12,2.64-1.64.7ZM299.57,567l4.59-1.43-1.37-3.22-4.59,1.43,1.37,3.22Z"/><path d="M310.62,584.65c-1.21.63-2.38,1.09-3.5,1.37s-2.17.36-3.15.24c-.97-.12-1.84-.44-2.62-.97-.77-.53-1.42-1.28-1.93-2.27-.44-.85-.69-1.7-.73-2.56-.04-.86.14-1.71.54-2.55.4-.84,1.05-1.66,1.94-2.46.89-.8,2.03-1.57,3.44-2.3,1.21-.63,2.38-1.09,3.51-1.36,1.13-.28,2.18-.36,3.15-.24.97.12,1.84.44,2.62.97.77.53,1.42,1.28,1.93,2.26.44.85.69,1.7.73,2.57.04.86-.14,1.71-.55,2.55-.41.84-1.06,1.66-1.95,2.46-.89.8-2.03,1.57-3.44,2.3ZM309.44,582.56c.27-.14.54-.29.8-.46.26-.16.51-.32.76-.48l-8.48-4.1c-.36.34-.66.7-.92,1.07-.26.37-.45.75-.56,1.15s-.16.8-.13,1.21c.03.41.16.83.39,1.26.29.55.68.98,1.18,1.29.5.31,1.1.49,1.79.53.69.04,1.47-.06,2.34-.29.87-.24,1.82-.62,2.84-1.16ZM305.8,575.23c-.25.13-.5.26-.75.4-.25.13-.48.28-.71.42l8.45,4.12c.35-.34.64-.69.89-1.05.24-.36.42-.74.53-1.12.11-.39.15-.78.11-1.19-.04-.4-.16-.81-.38-1.22-.29-.55-.68-.98-1.18-1.29-.5-.31-1.1-.48-1.79-.52-.69-.04-1.47.06-2.34.3-.87.24-1.82.62-2.84,1.16Z"/><path d="M318.81,597.94c-1.16.72-2.29,1.27-3.39,1.63-1.1.37-2.14.53-3.12.48s-1.87-.3-2.69-.76c-.81-.47-1.51-1.17-2.1-2.11-.51-.81-.82-1.64-.93-2.5s0-1.72.34-2.58c.34-.87.92-1.74,1.74-2.6.82-.87,1.91-1.72,3.25-2.56,1.16-.72,2.29-1.27,3.4-1.63,1.11-.36,2.15-.52,3.12-.48.98.04,1.87.29,2.69.76.81.47,1.51,1.17,2.1,2.11.51.81.82,1.64.93,2.5.11.86,0,1.72-.35,2.59-.34.87-.93,1.74-1.75,2.61-.82.87-1.91,1.72-3.25,2.56ZM317.47,595.95c.26-.16.52-.34.76-.52.25-.18.49-.36.72-.54l-8.77-3.43c-.33.37-.61.75-.84,1.13-.23.39-.39.79-.47,1.19-.09.4-.1.81-.03,1.21.06.41.23.81.48,1.22.33.53.75.92,1.28,1.19.52.27,1.13.4,1.82.39.69-.01,1.46-.17,2.31-.47.85-.3,1.76-.76,2.74-1.38ZM313.27,588.93c-.24.15-.48.3-.72.46-.24.15-.46.31-.67.47l8.75,3.45c.32-.36.59-.73.8-1.11s.36-.77.44-1.16c.08-.4.09-.79.02-1.19-.07-.4-.22-.79-.47-1.19-.33-.53-.75-.92-1.28-1.19s-1.13-.4-1.83-.38c-.69.01-1.47.17-2.31.48-.85.3-1.76.76-2.74,1.38Z"/><path d="M332.74,605.43l-4.51-6.1-4.66,3.44,4.27,5.78-1.64,1.21-4.27-5.78-6.4,4.73-1.48-2,14.37-10.62,5.99,8.11-1.67,1.24Z"/><circle cx="486" cy="486" r="210" fill="none"/><path d="M462.8,689.78l-3.02-.44-1.22,4.89-2-.29,1.22-4.89-3.45-.5-1.22,4.89-2-.29,1.22-4.89-2.88-.42.25-1.76,3.06.44,1.17-4.67-2.85-.41.25-1.76,3.03.44,1.1-4.4,1.98.29-1.09,4.4,3.46.5,1.1-4.4,2,.29-1.12,4.4,2.91.42-.25,1.76-3.09-.45-1.16,4.67,2.84.41-.25,1.76ZM458.23,687.32l1.16-4.67-3.46-.5-1.16,4.67,3.46.5Z"/><path d="M479.02,687.06c-.09,1.36-.31,2.6-.66,3.7-.35,1.1-.83,2.04-1.43,2.81-.61.77-1.34,1.35-2.19,1.73-.85.39-1.83.54-2.94.47-.96-.06-1.81-.3-2.57-.71-.76-.41-1.39-1.01-1.9-1.79-.5-.78-.87-1.76-1.09-2.94-.22-1.17-.28-2.55-.18-4.14.09-1.36.31-2.6.67-3.71.35-1.11.83-2.05,1.43-2.82.6-.77,1.33-1.35,2.19-1.73.86-.39,1.84-.54,2.94-.47.96.06,1.81.3,2.57.71.76.41,1.39,1.01,1.89,1.8.5.79.87,1.77,1.09,2.94.22,1.17.28,2.55.18,4.14ZM468.47,686.27c-.02.28-.04.56-.05.85-.01.28-.02.56,0,.82l7.92-5.08c-.11-.47-.25-.91-.43-1.3-.18-.39-.41-.74-.68-1.04-.27-.3-.59-.54-.95-.71-.36-.18-.78-.29-1.24-.32-.62-.04-1.19.07-1.71.34-.52.27-.98.69-1.38,1.26-.39.57-.72,1.29-.97,2.16-.25.87-.41,1.88-.49,3.03ZM476.62,686.98c.02-.31.03-.62.03-.92,0-.31,0-.61-.02-.9l-7.92,5.1c.1.48.25.93.43,1.34.18.42.41.78.69,1.08.28.31.6.55.96.74.37.18.79.29,1.27.33.62.04,1.19-.07,1.71-.34.53-.27.98-.68,1.38-1.25s.72-1.28.96-2.15c.25-.86.41-1.88.49-3.03Z"/><path d="M493.25,680.15l-7.59.07.06,5.8,7.19-.07.02,2.04-7.19.07.08,7.96-2.49.02-.18-17.87,10.08-.1.02,2.08Z"/><path d="M508.28,679.03l-7.56.66.5,5.78,7.16-.62.18,2.03-7.16.62.69,7.93-2.48.22-1.55-17.8,10.04-.88.18,2.07Z"/><circle cx="486" cy="486" r="210" fill="none"/><path d="M651.6,607l-1.88,2.4,3.64,3.49-1.25,1.59-3.64-3.49-2.15,2.75,3.64,3.49-1.25,1.59-3.64-3.49-1.79,2.3-1.4-1.09,1.9-2.44-3.47-3.33-1.78,2.27-1.4-1.09,1.88-2.41-3.27-3.14,1.23-1.57,3.28,3.13,2.15-2.76-3.27-3.14,1.25-1.59,3.26,3.15,1.81-2.32,1.4,1.09-1.92,2.46,3.48,3.32,1.77-2.26,1.4,1.09ZM647.19,609.76l-3.48-3.32-2.15,2.76,3.48,3.32,2.15-2.76Z"/><path d="M657.29,591.56c1.14.76,2.1,1.56,2.89,2.41.79.85,1.36,1.73,1.73,2.64s.5,1.83.42,2.76c-.09.93-.44,1.86-1.05,2.79-.53.8-1.16,1.42-1.89,1.88s-1.57.71-2.5.76c-.93.05-1.96-.12-3.09-.51s-2.36-1.02-3.68-1.9c-1.14-.76-2.1-1.56-2.89-2.42-.79-.86-1.37-1.74-1.73-2.64-.37-.91-.51-1.83-.42-2.76s.44-1.86,1.05-2.78c.53-.8,1.16-1.42,1.89-1.88s1.57-.71,2.5-.75c.93-.05,1.97.12,3.1.51s2.36,1.02,3.68,1.9ZM651.38,600.33c.24.16.47.31.71.46.24.15.47.29.71.41l-.48-9.39c-.46-.14-.91-.23-1.35-.27-.44-.04-.85,0-1.24.08-.39.09-.76.25-1.09.47-.33.23-.63.53-.89.92-.34.52-.53,1.07-.56,1.66-.03.59.11,1.19.41,1.82.3.63.77,1.26,1.39,1.91s1.42,1.29,2.39,1.93ZM656.03,593.61c-.26-.17-.52-.33-.79-.48-.27-.15-.53-.29-.79-.43l.5,9.41c.47.15.93.25,1.38.29.45.05.88.03,1.28-.06.4-.09.78-.25,1.12-.47.34-.23.65-.54.91-.95.34-.52.53-1.07.56-1.66.03-.59-.11-1.19-.4-1.82-.3-.62-.76-1.26-1.39-1.9-.63-.65-1.42-1.29-2.39-1.93Z"/><path d="M658.34,575.77l-3.69,6.63,5.06,2.82,3.5-6.28,1.78.99-3.5,6.28,6.95,3.87-1.21,2.17-15.61-8.69,4.9-8.8,1.82,1.01Z"/><path d="M671.58,563.81c1.24.57,2.32,1.21,3.23,1.93s1.61,1.5,2.12,2.34c.5.84.78,1.73.84,2.66.06.93-.14,1.91-.61,2.92-.4.87-.92,1.59-1.58,2.15s-1.44.94-2.35,1.13c-.91.19-1.96.19-3.13-.02s-2.49-.64-3.93-1.31c-1.24-.57-2.32-1.22-3.23-1.94-.91-.72-1.62-1.5-2.12-2.34-.5-.84-.78-1.72-.84-2.66-.06-.94.15-1.91.61-2.91.4-.87.93-1.59,1.58-2.15.65-.56,1.44-.94,2.35-1.13.92-.19,1.96-.18,3.14.03,1.18.21,2.49.64,3.93,1.31ZM667.09,573.4c.26.12.51.23.77.35.26.11.51.21.77.3l-1.93-9.2c-.48-.07-.94-.09-1.37-.06-.44.03-.84.12-1.21.27-.38.15-.71.36-1.01.64-.3.28-.54.62-.74,1.05-.26.56-.36,1.14-.29,1.72s.29,1.16.69,1.74c.39.57.95,1.13,1.67,1.67.72.54,1.61,1.05,2.66,1.54ZM670.65,566.04c-.28-.13-.57-.25-.85-.35s-.57-.21-.84-.31l1.96,9.21c.49.07.96.1,1.41.08s.87-.11,1.25-.26c.38-.15.73-.36,1.03-.64.3-.28.55-.63.76-1.07.26-.56.36-1.14.29-1.72-.06-.59-.29-1.16-.68-1.73-.39-.57-.95-1.12-1.67-1.67-.72-.54-1.61-1.05-2.66-1.53Z"/><circle cx="486" cy="486" r="191.5" fill="none"/><path d="M467.31,290.25l-3.02.38.13,5.04-2.01.26-.13-5.04-3.46.44.13,5.04-2.01.26-.13-5.04-2.89.37-.22-1.76,3.07-.39-.12-4.81-2.86.36-.22-1.76,3.04-.39-.11-4.53,1.98-.25.12,4.53,3.47-.44-.11-4.53,2.01-.25.09,4.54,2.92-.37.22,1.76-3.09.39.13,4.81,2.85-.36.22,1.76ZM462.25,289.1l-.13-4.81-3.47.44.13,4.81,3.47-.44Z"/><path d="M480.98,278.7l-7.58.37.28,5.79,7.18-.35.1,2.03-7.18.35.39,7.95-2.49.12-.87-17.85,10.06-.49.1,2.08Z"/><path d="M498.34,285.84c-.04,1.37-.21,2.61-.52,3.73-.31,1.12-.75,2.07-1.33,2.86-.58.79-1.29,1.39-2.12,1.81-.84.42-1.81.61-2.92.58-.96-.03-1.82-.23-2.59-.61-.77-.38-1.43-.96-1.96-1.72-.53-.76-.94-1.73-1.2-2.89-.27-1.17-.38-2.54-.33-4.13.04-1.37.21-2.61.52-3.73.31-1.12.75-2.08,1.33-2.87.57-.79,1.28-1.39,2.12-1.81.84-.42,1.81-.61,2.92-.58.96.03,1.82.23,2.59.61s1.43.96,1.96,1.72.94,1.73,1.2,2.9c.27,1.17.38,2.54.33,4.13ZM487.77,285.45c0,.28-.01.56-.02.85,0,.28,0,.56.02.82l7.72-5.37c-.12-.47-.28-.9-.48-1.29-.2-.39-.44-.73-.72-1.01-.28-.29-.61-.51-.98-.68s-.79-.26-1.25-.27c-.62-.02-1.19.12-1.7.4-.51.29-.96.72-1.33,1.31-.37.59-.67,1.32-.88,2.19-.22.87-.34,1.89-.38,3.05ZM495.94,285.85c0-.31,0-.62,0-.92-.01-.31-.03-.6-.05-.9l-7.72,5.4c.12.48.28.92.48,1.33.2.41.44.76.73,1.05s.62.53.99.7c.37.17.8.26,1.28.28.62.02,1.19-.12,1.7-.4s.96-.72,1.33-1.3c.37-.58.67-1.31.88-2.18.22-.87.34-1.89.38-3.05Z"/><path d="M514,287.4c-.15,1.36-.41,2.58-.81,3.67s-.91,2.01-1.54,2.75c-.64.74-1.39,1.29-2.26,1.64-.87.35-1.85.47-2.96.35-.95-.1-1.8-.37-2.54-.81-.74-.44-1.35-1.06-1.82-1.87-.47-.8-.8-1.79-.97-2.98-.18-1.18-.18-2.56-.01-4.14.15-1.36.42-2.59.81-3.68.4-1.09.91-2.01,1.55-2.76.63-.74,1.39-1.29,2.26-1.64.87-.35,1.86-.47,2.95-.35.95.1,1.8.37,2.54.81s1.35,1.07,1.82,1.87c.47.81.8,1.8.97,2.98.18,1.18.18,2.56.01,4.14ZM503.49,286.2c-.03.28-.06.56-.08.84-.03.28-.04.56-.04.82l8.11-4.76c-.09-.48-.21-.92-.38-1.32-.17-.4-.38-.76-.64-1.07-.26-.31-.57-.56-.92-.75-.35-.19-.76-.32-1.23-.36-.62-.07-1.19.02-1.73.27s-1.01.65-1.43,1.2c-.42.56-.77,1.26-1.05,2.12-.28.85-.49,1.86-.61,3.01ZM511.6,287.23c.03-.31.05-.61.06-.92s.02-.61.02-.9l-8.12,4.78c.09.49.21.94.38,1.36.17.42.38.79.64,1.11.26.32.58.58.93.77s.78.32,1.26.38c.62.07,1.19-.02,1.73-.27.53-.25,1.01-.64,1.43-1.19.42-.55.77-1.25,1.05-2.11.28-.85.49-1.86.61-3.01Z"/><polygon points="626.19 345.81 677.5 434.69 677.5 537.31 626.19 626.19 537.31 677.5 434.69 677.5 345.81 626.19 294.5 537.31 294.5 434.69 345.81 345.81 434.69 294.5 537.31 294.5 626.19 345.81" fill="none"/><path d="M643.86,366.39l-1.52-2.64-4.6,2.07-1.01-1.75,4.6-2.07-1.74-3.02-4.6,2.07-1.01-1.75,4.6-2.07-1.46-2.52,1.54-.89,1.54,2.68,4.39-1.97-1.44-2.5,1.54-.89,1.53,2.65,4.14-1.85,1,1.73-4.13,1.87,1.75,3.03,4.14-1.85,1.01,1.75-4.15,1.84,1.47,2.55-1.54.89-1.56-2.7-4.38,1.98,1.44,2.49-1.54.89ZM642.96,361.28l4.38-1.98-1.75-3.03-4.38,1.98,1.75,3.03Z"/><path d="M660.29,373.3l-3.79-6.57-5.02,2.9,3.6,6.23-1.76,1.02-3.6-6.23-6.89,3.98-1.24-2.15,15.47-8.93,5.04,8.73-1.8,1.04Z"/><path d="M668,386.65l-3.79-6.57-5.02,2.9,3.6,6.23-1.76,1.02-3.6-6.23-6.89,3.98-1.24-2.15,15.48-8.93,5.04,8.73-1.8,1.04Z"/><path d="M670.41,404.54c-1.18.68-2.33,1.19-3.44,1.51s-2.16.45-3.13.37-1.86-.36-2.66-.86c-.79-.49-1.47-1.22-2.03-2.18-.48-.83-.76-1.67-.84-2.53-.08-.86.06-1.72.43-2.57.37-.85.98-1.7,1.83-2.54.85-.84,1.96-1.66,3.34-2.45,1.18-.68,2.33-1.19,3.45-1.51,1.12-.32,2.16-.45,3.14-.38s1.86.36,2.66.86c.8.5,1.47,1.22,2.02,2.18.48.83.76,1.67.84,2.53s-.07,1.72-.44,2.57c-.37.86-.99,1.71-1.84,2.54-.85.84-1.96,1.66-3.34,2.45ZM669.13,402.5c.27-.15.53-.32.78-.49s.5-.34.74-.51l-8.65-3.74c-.34.36-.63.72-.88,1.11-.24.38-.41.77-.51,1.17s-.12.8-.07,1.21c.05.41.2.82.44,1.24.31.54.72.95,1.24,1.24s1.12.44,1.81.45c.69.01,1.46-.12,2.32-.39.86-.27,1.79-.7,2.79-1.28ZM665.19,395.34c-.25.14-.49.28-.73.43-.24.15-.47.3-.69.45l8.62,3.75c.33-.35.61-.71.84-1.09s.39-.76.48-1.15.12-.79.06-1.19c-.05-.4-.2-.8-.43-1.21-.31-.54-.72-.95-1.23-1.24-.51-.29-1.12-.44-1.81-.45-.7,0-1.47.12-2.33.4s-1.79.7-2.79,1.28Z"/><circle cx="486" cy="486" r="191.5" fill="none"/><path d="M307.45,403.56l-1.19,2.81,4.42,2.42-.79,1.86-4.42-2.42-1.36,3.21,4.42,2.42-.79,1.86-4.42-2.42-1.14,2.68-1.64-.69,1.2-2.85-4.21-2.32-1.12,2.66-1.64-.69,1.19-2.82-3.97-2.19.78-1.84,3.98,2.17,1.36-3.22-3.97-2.19.79-1.86,3.97,2.2,1.15-2.71,1.64.69-1.22,2.87,4.22,2.31,1.12-2.64,1.64.69ZM303.91,407.36l-4.22-2.31-1.36,3.22,4.22,2.31,1.36-3.22Z"/><path d="M304.36,385.91l-3.5,6.73,5.14,2.67,3.32-6.38,1.81.94-3.32,6.38,7.06,3.67-1.15,2.21-15.85-8.24,4.65-8.94,1.84.96Z"/><path d="M319.3,374.5c1.16.72,2.15,1.5,2.96,2.33s1.41,1.69,1.8,2.59c.39.9.55,1.81.49,2.75-.06.93-.39,1.87-.98,2.82-.51.81-1.12,1.46-1.84,1.93-.72.47-1.54.75-2.47.83-.93.08-1.96-.06-3.1-.42-1.14-.36-2.38-.96-3.73-1.8-1.16-.72-2.15-1.5-2.96-2.34s-1.41-1.7-1.81-2.59c-.39-.89-.56-1.81-.49-2.75.06-.94.39-1.87.97-2.81.51-.81,1.12-1.45,1.84-1.93.72-.47,1.55-.75,2.48-.82.93-.07,1.97.07,3.11.43,1.14.36,2.38.96,3.73,1.8ZM313.63,383.43c.24.15.48.3.72.44.24.15.48.28.72.39l-.74-9.37c-.47-.13-.92-.21-1.35-.23-.44-.02-.85.01-1.24.11-.39.1-.75.27-1.08.5-.33.23-.62.55-.86.94-.33.53-.5,1.08-.51,1.67s.14,1.19.46,1.81c.32.62.8,1.24,1.44,1.87.64.63,1.46,1.25,2.44,1.86ZM318.1,376.58c-.26-.16-.53-.32-.8-.46-.27-.14-.54-.28-.8-.41l.76,9.39c.47.14.94.22,1.39.25.45.03.88,0,1.28-.1.4-.1.77-.27,1.1-.5.34-.24.63-.56.89-.97.33-.53.5-1.08.51-1.67.01-.59-.14-1.19-.45-1.81s-.79-1.24-1.44-1.87c-.65-.63-1.46-1.25-2.44-1.86Z"/><path d="M322.26,358.77l-4.51,6.1,4.66,3.44,4.27-5.78,1.64,1.21-4.27,5.78,6.4,4.73-1.48,2-14.37-10.62,5.99-8.1,1.67,1.23Z"/><circle cx="486" cy="486" r="210" fill="none"/><path d="M354.93,645.54l-1.65-1.42-2.61,2.48-1.1-.94,2.61-2.48-1.89-1.62-2.61,2.48-1.1-.94,2.61-2.48-1.58-1.36.83-.96,1.67,1.44,2.5-2.36-1.56-1.34.83-.96,1.66,1.43,2.35-2.23,1.08.93-2.35,2.23,1.9,1.63,2.35-2.23,1.1.94-2.36,2.22,1.59,1.37-.83.96-1.69-1.45-2.49,2.37,1.56,1.34-.83.96ZM353.12,642.3l2.49-2.37-1.9-1.63-2.49,2.37,1.9,1.63Z"/><path d="M365.56,650.27c-.6.77-1.22,1.42-1.86,1.94-.65.52-1.3.88-1.97,1.1-.67.21-1.33.27-1.99.16-.66-.11-1.3-.41-1.93-.89-.54-.42-.96-.9-1.24-1.44-.29-.54-.42-1.15-.41-1.82.01-.67.18-1.39.52-2.18.33-.79.85-1.63,1.54-2.53.6-.77,1.22-1.42,1.87-1.94.65-.52,1.31-.89,1.97-1.1.66-.22,1.33-.27,1.99-.16s1.31.41,1.93.89c.54.42.96.9,1.24,1.44.29.55.42,1.15.41,1.82-.01.67-.19,1.39-.52,2.18-.33.79-.85,1.63-1.54,2.53ZM364.17,649.27c.14-.17.26-.35.38-.54s.24-.36.35-.54l-6.73-.11c-.13.33-.22.65-.28.97s-.06.62-.02.92c.04.29.14.56.28.82.14.25.35.49.63.7.35.27.73.43,1.15.48.42.05.86-.01,1.31-.2s.94-.48,1.43-.89c.49-.41.99-.95,1.49-1.6ZM359.61,645.61c-.12.16-.25.32-.37.48-.12.16-.23.32-.33.49l6.72.13c.12-.32.21-.64.26-.95.05-.31.05-.6,0-.89-.04-.28-.14-.55-.28-.8-.14-.25-.35-.48-.61-.68-.35-.27-.73-.43-1.15-.48-.42-.05-.86.02-1.32.2-.46.18-.94.48-1.43.9-.49.42-.99.95-1.49,1.6Z"/><path d="M374.68,656.59c-.55.8-1.14,1.48-1.75,2.04-.62.55-1.25.95-1.9,1.2s-1.31.34-1.98.27c-.66-.07-1.32-.33-1.98-.79-.56-.39-1-.84-1.32-1.37-.32-.53-.49-1.13-.51-1.79-.03-.67.11-1.4.4-2.2.29-.8.76-1.67,1.4-2.61.55-.81,1.14-1.48,1.76-2.04.62-.55,1.26-.96,1.91-1.21s1.31-.34,1.98-.26c.67.08,1.33.34,1.97.78.56.39,1,.85,1.32,1.37.32.53.49,1.13.51,1.79.02.67-.11,1.4-.4,2.21-.29.8-.76,1.67-1.4,2.61ZM373.23,655.67c.13-.18.24-.37.35-.56.11-.19.22-.38.32-.56l-6.72.25c-.11.33-.19.66-.23.98-.04.32-.03.63.03.92.06.29.17.56.32.8.16.25.38.47.66.66.36.25.76.39,1.18.42.42.03.85-.06,1.3-.27s.91-.53,1.38-.97.94-1,1.4-1.68ZM368.49,652.27c-.11.17-.23.33-.34.5-.11.17-.21.34-.3.5l6.71-.24c.11-.33.18-.65.21-.96.03-.31.02-.61-.04-.89-.06-.28-.17-.54-.33-.79-.16-.24-.37-.46-.65-.65-.37-.25-.76-.39-1.18-.42s-.85.06-1.31.27c-.45.21-.91.53-1.38.97-.47.44-.94,1-1.4,1.68Z"/><path d="M382.21,664.96c-.28.46-.63.81-1.03,1.06-.41.24-.86.38-1.34.42-.49.04-1-.02-1.54-.17-.54-.15-1.08-.39-1.62-.72-.59-.36-1.08-.75-1.45-1.16-.37-.41-.64-.83-.8-1.25-.16-.43-.22-.85-.17-1.27s.19-.83.43-1.23c.41-.67.94-1.13,1.61-1.38.67-.26,1.51-.34,2.53-.27-.49-.79-.77-1.51-.82-2.16s.09-1.25.44-1.82c.21-.35.49-.65.84-.89.34-.24.74-.4,1.19-.48.45-.08.94-.06,1.47.06.53.12,1.1.35,1.69.72.56.34,1.02.7,1.37,1.08.35.38.6.77.76,1.17.15.4.21.8.16,1.21-.05.4-.19.8-.43,1.19-.39.63-.89,1.07-1.52,1.29s-1.36.31-2.22.25c.22.36.42.72.57,1.08.16.36.27.73.33,1.09.06.36.06.73,0,1.09-.07.36-.21.73-.43,1.09ZM380.57,664.11c.13-.21.21-.43.27-.66.05-.24.05-.5,0-.79s-.17-.62-.35-.99c-.17-.37-.42-.78-.75-1.25-.49-.05-.92-.06-1.29-.04-.37.02-.69.08-.96.17-.27.09-.5.21-.69.37-.19.16-.35.35-.49.57-.15.25-.23.5-.24.76,0,.26.04.51.15.76.11.25.27.49.49.71.22.23.48.43.79.62.29.18.59.32.89.42.3.1.58.14.85.13s.52-.07.74-.2c.23-.12.42-.32.59-.59ZM383.93,658.27c.3-.49.35-.97.15-1.42-.2-.45-.61-.87-1.24-1.25-.62-.38-1.18-.56-1.67-.53-.49.03-.89.28-1.18.76-.13.22-.21.44-.24.68s0,.49.07.75c.08.27.2.56.36.87.17.32.38.66.64,1.04.81.09,1.46.07,1.96-.07.5-.13.88-.41,1.14-.83Z"/><path d="M393.86,667.69c-.46.86-.97,1.6-1.52,2.21-.55.62-1.14,1.08-1.76,1.4-.62.32-1.27.48-1.94.48-.67,0-1.35-.19-2.05-.56-.6-.32-1.09-.73-1.46-1.22s-.61-1.07-.7-1.72-.04-1.4.16-2.23c.2-.83.57-1.74,1.11-2.74.46-.86.97-1.6,1.53-2.22s1.15-1.09,1.77-1.41c.62-.32,1.27-.48,1.94-.48.67,0,1.35.19,2.05.56.6.32,1.09.73,1.46,1.22.37.49.6,1.07.7,1.73s.04,1.41-.16,2.24c-.2.83-.57,1.74-1.11,2.74ZM392.32,666.93c.1-.2.2-.39.29-.59.09-.2.17-.4.26-.59l-6.66.98c-.07.34-.11.68-.12,1,0,.32.04.63.13.91.09.28.23.54.41.76s.43.42.73.59c.39.21.79.31,1.21.29.42-.02.84-.15,1.27-.41.42-.25.84-.62,1.26-1.11.42-.49.82-1.1,1.21-1.83ZM387.23,664.07c-.1.18-.19.36-.28.54-.09.18-.18.36-.25.53l6.65-.96c.07-.34.11-.66.1-.98,0-.31-.05-.6-.14-.88-.09-.27-.23-.52-.41-.75s-.42-.41-.71-.57c-.39-.21-.79-.31-1.21-.29s-.84.16-1.27.41c-.43.25-.85.63-1.27,1.12-.42.49-.82,1.1-1.21,1.83Z"/><path d="M405.11,667.61l-4.91-2.3-1.76,3.75,4.65,2.18-.62,1.32-4.65-2.18-2.41,5.15-1.61-.75,5.42-11.56,6.52,3.05-.63,1.34Z"/><path d="M415.11,671.74l-5.03-2.03-1.55,3.84,4.76,1.92-.54,1.35-4.76-1.92-2.13,5.27-1.65-.67,4.78-11.84,6.67,2.69-.56,1.38Z"/><circle cx="486" cy="486" r="210" fill="none"/><path d="M566.13,676.34l-2.03.8.98,3.47-1.34.53-.98-3.47-2.32.92.98,3.47-1.34.53-.98-3.46-1.93.76-.47-1.18,2.05-.81-.93-3.31-1.92.76-.47-1.18,2.03-.8-.88-3.12,1.33-.52.89,3.12,2.33-.92-.88-3.12,1.34-.53.87,3.12,1.95-.77.47,1.18-2.07.82.94,3.3,1.91-.75.47,1.18ZM562.42,676.44l-.94-3.3-2.32.92.94,3.3,2.32-.92Z"/><path d="M575.28,669.12c.41.89.69,1.74.85,2.55.16.81.18,1.56.06,2.25s-.38,1.3-.78,1.83c-.4.53-.97.97-1.69,1.3-.62.29-1.24.43-1.86.43-.62,0-1.22-.16-1.8-.48s-1.15-.81-1.69-1.47-1.05-1.51-1.52-2.54c-.41-.89-.69-1.74-.85-2.55s-.18-1.57-.06-2.26c.12-.69.38-1.3.79-1.83.41-.53.97-.97,1.68-1.3.62-.29,1.24-.43,1.86-.43.62,0,1.22.16,1.8.48.58.32,1.15.81,1.69,1.47s1.05,1.51,1.52,2.54ZM568.38,672.23c.08.18.17.37.26.55.09.18.18.35.28.52l3.23-5.89c-.23-.26-.47-.48-.72-.67-.25-.19-.51-.33-.78-.42-.27-.09-.55-.13-.84-.12-.29.01-.58.09-.88.22-.4.19-.72.45-.96.8-.24.35-.38.77-.44,1.26-.05.49,0,1.05.13,1.68s.38,1.32.73,2.07ZM573.74,669.89c-.09-.2-.19-.4-.3-.59s-.21-.38-.32-.56l-3.23,5.9c.23.27.47.5.73.7.26.2.52.35.8.44.28.1.56.14.86.13.29,0,.6-.09.91-.23.4-.18.72-.45.96-.8.24-.35.38-.76.44-1.25.05-.49.01-1.05-.13-1.68s-.38-1.32-.73-2.07Z"/><path d="M585.09,663.99c.46.86.79,1.7.99,2.5.2.8.26,1.55.18,2.25-.08.7-.31,1.32-.68,1.87-.37.55-.91,1.02-1.61,1.39-.6.32-1.21.5-1.83.53s-1.22-.09-1.82-.38c-.6-.29-1.19-.75-1.77-1.38-.58-.63-1.13-1.45-1.66-2.45-.46-.86-.79-1.7-.99-2.5s-.26-1.56-.18-2.25.31-1.32.68-1.87c.38-.56.91-1.02,1.61-1.39.6-.32,1.21-.5,1.83-.53s1.22.09,1.83.38c.6.29,1.19.75,1.77,1.38s1.13,1.45,1.66,2.45ZM578.38,667.47c.09.18.19.36.29.53.1.18.2.34.3.5l2.91-6.05c-.24-.25-.49-.46-.75-.63-.26-.17-.53-.3-.81-.38-.28-.08-.56-.1-.85-.08-.29.03-.58.12-.87.27-.39.21-.7.49-.92.85-.22.36-.34.79-.37,1.28-.03.5.05,1.05.22,1.67s.45,1.29.84,2.03ZM583.59,664.85c-.1-.2-.21-.39-.33-.57-.12-.18-.23-.37-.35-.54l-2.9,6.07c.24.25.5.47.77.66.27.18.54.32.82.4.28.08.57.11.86.08.29-.03.59-.12.9-.28.39-.21.7-.49.92-.85.22-.36.34-.78.37-1.28.03-.49-.05-1.05-.22-1.67-.17-.62-.45-1.29-.84-2.03Z"/><path d="M591.31,654.6l-4.65,2.79,2.13,3.55,4.4-2.64.75,1.25-4.4,2.64,2.93,4.87-1.52.92-6.57-10.94,6.17-3.7.76,1.27Z"/><path d="M600.32,648.61l-4.49,3.04,2.32,3.43,4.25-2.88.82,1.21-4.25,2.88,3.19,4.71-1.47,1-7.16-10.57,5.96-4.04.83,1.23Z"/><path d="M609.52,641.86l2.5,12.14-1.55,1.17-2.34-12.27-5.49,4.17-.96-1.26,6.88-5.22.96,1.26Z"/><path d="M617.31,635.21l-4.13,3.51,2.68,3.16,3.92-3.32.94,1.11-3.92,3.32,3.68,4.33-1.36,1.15-8.26-9.73,5.49-4.66.96,1.13Z"/></g><g id="color_names"><g id="Primary"><path d="M452.17,27.05c1.95-.51,4.76-.88,7.45-1.02,4.17-.22,6.9.39,8.87,1.99,1.59,1.25,2.55,3.26,2.67,5.57.21,3.96-2.16,6.72-5.29,7.96v.13c2.38.68,3.88,2.74,4.76,5.82,1.21,4.13,2.08,6.99,2.76,8.11l-4.03.21c-.54-.82-1.35-3.37-2.39-7.06-1.11-4.09-2.81-5.57-6.36-5.51l-3.67.19.68,13-3.9.21-1.56-29.6ZM456.79,40.51l3.99-.21c4.17-.22,6.69-2.63,6.51-6.06-.2-3.87-3.12-5.41-7.24-5.24-1.88.1-3.22.35-3.84.56l.58,10.95Z" stroke="#231f20" stroke-width="1.01"/><path d="M479.6,45.6c.17,5.3,3.62,7.43,7.57,7.37,2.83-.05,4.52-.56,6-1.21l.72,2.8c-1.38.65-3.75,1.4-7.2,1.46-6.69.11-10.75-4.19-10.85-10.7-.1-6.51,3.67-11.7,10-11.8,7.09-.11,9.07,6.05,9.14,10.02.01.8-.07,1.43-.11,1.83l-15.26.25ZM491.13,42.6c0-2.5-1.13-6.36-5.58-6.28-3.99.06-5.69,3.75-5.96,6.47l11.53-.19Z" stroke="#231f20" stroke-width="1.01"/><path d="M519.97,25.05l-1.34,26.04c-.1,1.91-.17,4.1-.11,5.57l-3.54-.18v-3.75s-.08,0-.08,0c-1.33,2.34-4.07,4.03-7.61,3.85-5.24-.27-9.05-4.89-8.71-11.43.32-7.17,5.03-11.34,10.32-11.07,3.32.17,5.48,1.85,6.37,3.63h.09s.66-12.86.66-12.86l3.94.2ZM515.06,43.68c.02-.49.01-1.16-.1-1.66-.45-2.52-2.5-4.68-5.46-4.83-4.08-.21-6.68,3.23-6.93,7.99-.22,4.36,1.74,8.08,6,8.3,2.64.14,5.15-1.48,6.02-4.38.16-.53.23-1.06.26-1.68l.19-3.74Z" stroke="#231f20" stroke-width="1.01"/><path d="M871.1,746.82c-.52,1.77-1.72,5.15-4.11,8.42-2.68,3.67-5.83,6.01-9.83,6.73-3.54.62-7.73-.45-11.5-3.22-7.21-5.32-8.87-14.15-2.93-22.29,2.05-2.81,4.27-4.56,5.53-5.23l2,2.62c-1.52.87-3.17,2.15-4.96,4.6-4.31,5.9-3.45,12.44,2.63,16.88,6.15,4.5,12.5,3.44,16.63-2.2,1.5-2.05,2.24-3.67,2.4-4.65l-7.23-5.29-3.6,4.93-2.52-1.84,5.84-7.99,11.66,8.52Z" stroke="#231f20" stroke-width="1.01"/><path d="M863.47,733.8c-2.12-1.4-3.97-2.56-5.72-3.56l1.89-2.86,3.61,2.22.1-.15c-1.88-2.41-2.1-5.39-.65-7.59.25-.37.45-.61.73-.86l3.09,2.04c-.3.29-.55.6-.85,1.04-1.52,2.31-.86,5.1,1.31,7.17.4.37.87.79,1.43,1.16l9.6,6.34-2.14,3.24-12.39-8.18Z" stroke="#231f20" stroke-width="1.01"/><path d="M876.51,722.45c4.59,2.67,8.21.9,10.24-2.46,1.45-2.4,1.91-4.11,2.13-5.69l2.75.88c-.18,1.51-.79,3.9-2.57,6.84-3.43,5.69-9.23,6.82-14.8,3.46-5.57-3.36-7.98-9.3-4.73-14.68,3.64-6.03,9.91-4.43,13.31-2.38.69.41,1.18.81,1.5,1.06l-7.84,12.97ZM880.05,711.15c-2.11-1.33-5.99-2.42-8.27,1.36-2.05,3.4.18,6.77,2.35,8.44l5.92-9.81Z" stroke="#231f20" stroke-width="1.01"/><path d="M888.04,702.82c4.71,2.44,8.24.49,10.1-2.97,1.33-2.47,1.7-4.2,1.85-5.79l2.79.74c-.1,1.51-.6,3.93-2.22,6.95-3.15,5.85-8.87,7.27-14.6,4.19-5.73-3.08-8.43-8.89-5.45-14.42,3.34-6.2,9.68-4.91,13.17-3.04.71.38,1.21.75,1.55.98l-7.18,13.35ZM891.01,691.36c-2.18-1.22-6.1-2.12-8.19,1.77-1.88,3.49.52,6.76,2.76,8.32l5.43-10.09Z" stroke="#231f20" stroke-width="1.01"/><path d="M892.56,682.16c-2.02-.95-3.69-1.69-5.36-2.33l1.48-3.14,3.32,1.32.04-.08c-1.4-1.84-2.15-4.96-.63-8.18,1.27-2.7,4.87-6.13,11.56-2.97l11.65,5.5-1.67,3.55-11.25-5.31c-3.15-1.48-6.32-1.55-7.9,1.8-1.1,2.34-.31,4.93,1.38,6.47.37.37.93.74,1.54,1.02l11.73,5.54-1.67,3.55-14.23-6.72Z" stroke="#231f20" stroke-width="1.01"/><path d="M90.92,673.32c1.09,1.34,2.55,3.6,3.79,6.02,1.77,3.45,2.32,5.98,1.82,8.33-.32,1.92-1.48,3.56-3.58,4.64-2.58,1.32-5.71.78-8.19-1.51l-.08.04c.67,2.86.09,6.92-3.87,8.95-2.3,1.18-4.51,1.16-6.52.49-2.66-.99-5-3.59-7.24-7.96-1.22-2.38-2-4.29-2.43-5.52l26.29-13.5ZM68.94,688.96c.23.73.7,1.75,1.33,2.98,1.83,3.57,4.83,6.19,8.72,4.19,3.65-1.87,3.55-5.78,1.61-9.55l-1.47-2.85-10.19,5.23ZM81.75,682.39l1.61,3.13c1.87,3.65,4.88,4.81,7.45,3.49,3.13-1.61,3.14-4.62,1.35-8.11-.82-1.59-1.4-2.44-1.81-2.93l-8.61,4.42Z" stroke="#231f20" stroke-width="1.01"/><path d="M103.7,693.24l1.93,3.42-27.58,15.53-1.92-3.42,27.58-15.53Z" stroke="#231f20" stroke-width="1.01"/><path d="M96.12,730.86c-1.9,1.17-3.54,2.24-4.92,3.24l-1.83-2.96,2.88-2.04-.05-.07c-2.02.04-5.15-.71-7.16-3.97-1.77-2.88-2.31-7.32,4.14-11.3l10.74-6.62,2.06,3.34-10.17,6.27c-3.49,2.15-5.19,4.66-3.32,7.7,1.38,2.24,3.89,2.84,5.75,2.53.61-.11,1.29-.37,1.9-.75l11.27-6.94,2.06,3.34-13.36,8.23Z" stroke="#231f20" stroke-width="1.01"/><path d="M104.76,736.28c-4.32,3.09-4.19,7.12-1.96,10.35,1.6,2.31,2.96,3.43,4.31,4.28l-1.93,2.15c-1.3-.78-3.23-2.32-5.18-5.15-3.77-5.47-2.43-11.22,2.93-14.91,5.36-3.7,11.76-3.45,15.33,1.72,4,5.8-.03,10.86-3.3,13.11-.66.46-1.22.74-1.58.93l-8.61-12.48ZM113.6,744.15c2.08-1.38,4.67-4.47,2.16-8.1-2.26-3.27-6.25-2.62-8.67-1.33l6.51,9.43Z" stroke="#231f20" stroke-width="1.01"/></g><g id="Secondary"><path d="M837.53,231.72l9.44-6.78,7.75-16.23,2.35,3.27-3.88,7.55c-1.07,2.07-1.94,3.7-3,5.51l.05.07c1.9-.42,3.9-.7,6.2-1.05l8.44-1.21,2.35,3.27-18.13,1.72-9.47,6.81-2.09-2.9Z" stroke="#231f20" stroke-miterlimit="10" stroke-width=".5"/><path d="M853.48,238.42c-3.99,2.73-3.96,6.4-1.99,9.39,1.41,2.14,2.63,3.18,3.84,3.99l-1.8,1.92c-1.17-.74-2.9-2.18-4.62-4.79-3.33-5.06-1.99-10.27,2.96-13.53,4.96-3.26,10.78-2.91,13.93,1.87,3.53,5.36-.25,9.9-3.27,11.88-.61.4-1.13.65-1.46.81l-7.6-11.54ZM861.38,245.77c1.92-1.22,4.34-3.98,2.13-7.34-1.99-3.02-5.64-2.51-7.87-1.39l5.74,8.72Z" stroke="#231f20" stroke-miterlimit="10" stroke-width=".5"/><path d="M880.25,243.69l1.86,3.05-24.63,15.03-1.86-3.05,24.63-15.03Z" stroke="#231f20" stroke-miterlimit="10" stroke-width=".5"/><path d="M885.41,252.3l1.79,3.09-24.94,14.49-1.8-3.09,24.94-14.49Z" stroke="#231f20" stroke-miterlimit="10" stroke-width=".5"/><path d="M882.37,285.87c-6.42,3.42-11.58.47-13.82-3.73-2.5-4.7-.99-10.15,4.49-13.08,5.81-3.1,11.24-1.11,13.8,3.69,2.66,4.98.83,10.28-4.47,13.11ZM874.85,272.2c-3.8,2.03-5.5,5.74-3.86,8.83,1.61,3.01,5.64,3.76,9.55,1.68,2.94-1.57,5.89-5.03,3.9-8.75s-6.29-3.51-9.59-1.75Z" stroke="#231f20" stroke-miterlimit="10" stroke-width=".5"/><path d="M893.79,287.11l-8,6.53c-1.76,1.43-3.38,2.76-5.08,3.94l.05.11c1.99-.42,4.19-.71,6.38-1l10.46-1.26,1.25,2.73-7.67,6.87c-1.84,1.65-3.48,3.03-5.11,4.26l.05.11c1.95-.53,4.05-.92,6.43-1.29l10.14-1.57,1.47,3.21-20.52,2.43-1.35-2.96,7.28-6.64c1.71-1.54,3.24-2.87,5.14-4.28l-.03-.07c-2.34.54-4.45.83-6.65,1.08l-9.82,1.01-1.35-2.95,15.4-13.59,1.52,3.32Z" stroke="#231f20" stroke-miterlimit="10" stroke-width=".5"/><path d="M76.13,311.4c-3.62-1.23-7.98-2.71-11.13-4.02l-.05.11c2.63,2.06,5.38,4.39,8.37,7.08l10.54,9.43-1,2.49-13.76-.74c-4.07-.23-7.76-.52-11.06-1.01l-.03.07c3.14,1.35,7.33,3.24,11.05,4.99l10.63,5.04-1.25,3.13-24.72-11.96,1.68-4.19,14.04.59c3.56.2,6.69.45,9.59.86l.04-.11c-2.31-1.67-4.74-3.69-7.49-6.11l-10.49-9.45,1.68-4.19,26.07,8.6-1.28,3.21-11.43-3.83Z" stroke="#231f20" stroke-miterlimit="10" stroke-width=".5"/><path d="M95.76,297.55l-2.36-.8-.05.11c.93,1.65,1.27,4.15.07,6.69-1.7,3.6-5.11,4.24-7.68,3.02-4.3-2.03-4.84-6.96-1.56-13.82l-.37-.17c-1.47-.69-4.3-1.54-6.02,2.1-.78,1.65-1.08,3.62-.87,5.25l-2.48-.27c-.26-1.92.12-4.34,1.18-6.59,2.57-5.44,6.91-5.01,10.47-3.32l6.65,3.14c1.54.73,3.08,1.37,4.4,1.72l-1.39,2.94ZM86.46,293.73c-1.74,3.49-3.01,7.79.44,9.42,2.09.99,3.75.06,4.53-1.59,1.09-2.32.32-4.48-.94-5.71-.28-.27-.61-.51-.94-.67l-3.08-1.46Z" stroke="#231f20" stroke-miterlimit="10" stroke-width=".5"/><path d="M90.02,265.82c1.22.74,2.58,1.56,4.69,2.68l10.08,5.37c3.98,2.12,6,4.21,6.61,6.7.68,2.53-.12,5.23-1.28,7.42-1.11,2.08-2.83,4.11-4.51,5.01l-1.98-2.07c1.33-.76,2.93-2.21,4.08-4.37,1.72-3.23,1.29-6.49-3.08-8.83l-1.94-1.03-.04.07c1.1,1.83,1.39,4.38-.04,7.07-2.29,4.3-7.59,5.44-12.4,2.88-5.88-3.13-7.17-8.75-5.05-12.73,1.6-3.01,4.06-3.82,5.9-3.81l.04-.07-2.54-1.54,1.47-2.76ZM95.13,272.74c-.54-.29-1.02-.5-1.53-.59-2.13-.4-4.46.34-5.68,2.63-1.61,3.01-.21,6.52,3.81,8.66,3.41,1.82,7.16,1.6,8.97-1.8,1.03-1.94.75-4.34-.9-6.09-.44-.47-1.01-.86-1.55-1.15l-3.12-1.66Z" stroke="#231f20" stroke-miterlimit="10" stroke-width=".5"/><path d="M103.22,263.93c4.19,2.41,7.49.78,9.32-2.29,1.31-2.2,1.72-3.75,1.92-5.2l2.51.79c-.16,1.37-.71,3.55-2.31,6.24-3.11,5.2-8.38,6.26-13.47,3.22-5.09-3.04-7.31-8.44-4.37-13.36,3.29-5.51,9.02-4.08,12.12-2.23.63.38,1.07.74,1.37.96l-7.09,11.86ZM106.4,253.62c-1.93-1.2-5.47-2.18-7.53,1.28-1.85,3.11.19,6.17,2.17,7.69l5.36-8.97Z" stroke="#231f20" stroke-miterlimit="10" stroke-width=".5"/><path d="M108.52,245.25c-1.69-1.12-3.1-2.01-4.52-2.81l1.76-2.64,2.82,1.63.04-.07c-1.02-1.85-1.28-4.76.52-7.46,1.51-2.27,5.2-4.88,10.82-1.15l9.78,6.5-1.98,2.98-9.44-6.28c-2.64-1.75-5.49-2.24-7.36.57-1.31,1.96-.93,4.41.39,6.02.28.38.74.79,1.25,1.12l9.85,6.55-1.98,2.98-11.94-7.95Z" stroke="#231f20" stroke-miterlimit="10" stroke-width=".5"/><path d="M114.94,216.51l4.57,3.32,3.01-4.14,2.2,1.6-3.01,4.14,8.59,6.23c1.97,1.43,3.5,1.68,4.67.07.55-.76.86-1.39,1.02-1.82l2.27,1.45c-.18.73-.66,1.73-1.47,2.85-.98,1.35-2.19,2.13-3.49,2.24-1.45.2-3.08-.53-4.96-1.89l-8.69-6.3-1.79,2.47-2.2-1.6,1.79-2.47-3.82-2.77,1.3-3.38Z" stroke="#231f20" stroke-miterlimit="10" stroke-width=".5"/><path d="M147.42,215.65l-2.12-1.31-.08.09c.54,1.82.32,4.33-1.41,6.53-2.46,3.14-5.92,3-8.15,1.25-3.74-2.93-3.18-7.86,1.55-13.82l-.32-.25c-1.28-1-3.86-2.46-6.34.71-1.13,1.44-1.86,3.29-2.01,4.93l-2.36-.81c.17-1.93,1.08-4.21,2.61-6.16,3.71-4.73,7.84-3.35,10.94-.91l5.79,4.54c1.34,1.05,2.7,2.02,3.91,2.65l-2.01,2.56ZM139.2,209.87c-2.47,3.02-4.66,6.93-1.66,9.29,1.82,1.43,3.64.89,4.77-.55,1.58-2.01,1.31-4.3.35-5.77-.21-.32-.48-.64-.77-.86l-2.69-2.11Z" stroke="#231f20" stroke-miterlimit="10" stroke-width=".5"/><path d="M465.28,944.5c-1.34.56-3.99,1.02-7.31.78-7.7-.56-13.15-5.84-12.51-14.8.62-8.55,6.83-13.93,15.3-13.33,3.41.25,5.5,1.13,6.4,1.68l-1.06,2.82c-1.29-.75-3.16-1.37-5.43-1.53-6.4-.46-10.96,3.33-11.47,10.5-.48,6.69,3.06,11.26,9.71,11.74,2.15.16,4.37-.13,5.84-.72l.53,2.85Z" stroke="#231f20" stroke-miterlimit="10" stroke-width=".5"/><path d="M471.27,925.88l4.01,11.73c.41,1.31.86,2.87,1.16,4.05h.08c.4-1.17.84-2.66,1.36-4.07l4.19-11.44,3.78.1-5.72,13.88c-2.73,6.68-4.56,10.08-7.06,12.13-1.78,1.5-3.55,2.07-4.45,2.21l-.82-3.03c.9-.26,2.09-.8,3.17-1.67.99-.75,2.25-2.1,3.11-3.9.17-.36.3-.64.31-.85s-.07-.49-.22-.94l-6.81-18.3,3.9.1Z" stroke="#231f20" stroke-miterlimit="10" stroke-width=".5"/><path d="M500.07,945.7l-.33-2.47h-.12c-1.07,1.56-3.16,2.98-5.96,3.03-3.98.07-6.06-2.7-6.11-5.54-.08-4.75,4.1-7.43,11.7-7.52v-.4c-.03-1.63-.53-4.54-4.55-4.47-1.83.03-3.73.63-5.1,1.55l-.85-2.34c1.61-1.08,3.95-1.82,6.43-1.86,6.01-.11,7.55,3.97,7.61,7.91l.13,7.35c.03,1.71.14,3.37.41,4.71l-3.25.06ZM499.37,935.67c-3.9-.01-8.32.75-8.25,4.57.04,2.32,1.6,3.39,3.43,3.35,2.56-.04,4.16-1.7,4.69-3.37.12-.37.19-.77.18-1.14l-.06-3.41Z" stroke="#231f20" stroke-miterlimit="10" stroke-width=".5"/><path d="M508.64,931.1c-.13-2.03-.28-3.69-.5-5.3l3.16-.2.41,3.23h.08c.86-1.93,3.01-3.9,6.25-4.11,2.72-.17,7.04,1.18,7.47,7.91l.75,11.72-3.57.23-.72-11.32c-.2-3.16-1.55-5.72-4.91-5.51-2.35.15-4.07,1.93-4.55,3.96-.13.46-.17,1.07-.14,1.68l.76,11.8-3.57.23-.91-14.32Z" stroke="#231f20" stroke-miterlimit="10" stroke-width=".5"/></g><g id="Tertiary"><path d="M225.43,854.84l-7.18,5.54-3.03-2.05,23.06-17.46,3.53,2.39-7.62,27.92-3.13-2.12,2.41-8.77-8.04-5.44ZM234.42,857.58l2.2-8.03c.5-1.82,1.07-3.4,1.62-4.94l-.07-.04c-1.25,1.12-2.55,2.25-3.92,3.33l-6.66,5.06,6.83,4.62Z" stroke="#fff" stroke-width=".5"/><path d="M237.9,870.98l13.62-5.27c1.28-.46,2.46-.84,3.77-1.28l.04-.07-9.1-5.53,1.5-2.47,12.81,7.79-1.2,1.89-13.43,5.2c-1.26.52-2.47.93-3.76,1.33l-.04.07,9.83,5.97-1.48,2.43-13.65-8.3,1.08-1.77Z" stroke="#fff" stroke-width=".5"/><path d="M271.26,886.46c-.98,1.78-1.8,3.37-2.44,4.78l-2.78-1.52,1.37-2.91-.07-.04c-1.58.94-4.39,1.76-7.46.08-2.71-1.49-5.13-4.76-1.8-10.81l5.53-10.08,3.13,1.72-5.24,9.54c-1.8,3.28-2.01,6.03.84,7.6,2.1,1.15,4.36.49,5.7-.58.43-.36.85-.88,1.16-1.45l5.81-10.58,3.13,1.72-6.88,12.53Z" stroke="#fff" stroke-width=".5"/><path d="M280.62,882.04c1.03-2.07,1.88-3.87,2.59-5.56l2.8,1.39-1.61,3.51.15.07c1.98-1.97,4.65-2.5,6.79-1.43.36.18.6.34.85.56l-1.5,3.02c-.29-.24-.6-.43-1.04-.65-2.26-1.12-4.71-.21-6.34,1.97-.29.4-.62.87-.89,1.42l-4.67,9.38-3.16-1.58,6.03-12.11Z" stroke="#fff" stroke-width=".5"/><path d="M292.33,892.61c-1.92,4.44.07,7.53,3.33,9,2.33,1.06,3.92,1.29,5.38,1.32l-.5,2.58c-1.38,0-3.61-.3-6.46-1.59-5.52-2.5-7.17-7.62-4.72-13.02s7.56-8.22,12.78-5.85c5.85,2.65,5.07,8.5,3.58,11.79-.3.67-.61,1.15-.8,1.47l-12.59-5.7ZM302.94,894.6c.98-2.05,1.55-5.68-2.12-7.34-3.29-1.49-6.11.89-7.39,3.03l9.51,4.31Z" stroke="#fff" stroke-width=".5"/><path d="M222.81,107.88c1.28-1.3,3.3-2.89,5.33-4.24,3.14-2.1,5.55-2.88,7.83-2.55,1.83.25,3.51,1.37,4.68,3.13,2.01,3.01,1.45,6.26-.4,8.68l.07.1c2.16-.57,4.29.36,6.42,2.36,2.87,2.68,4.88,4.51,5.94,5.07l-3.04,2.03c-.8-.39-2.62-2.01-5.16-4.42-2.78-2.69-4.78-3.06-7.52-1.38l-2.77,1.85,6.6,9.86-2.94,1.97-15.02-22.46ZM232.68,116.29l3.01-2.01c3.14-2.1,3.98-5.16,2.24-7.76-1.97-2.94-4.95-2.8-8.08-.75-1.42.95-2.34,1.76-2.72,2.21l5.56,8.31Z" stroke="#fff" stroke-width=".5"/><path d="M265.95,100.76c3.74,6.24,1.04,11.55-3.04,13.99-4.57,2.73-10.09,1.49-13.28-3.84-3.38-5.65-1.67-11.17,3-13.97,4.85-2.9,10.23-1.34,13.32,3.82ZM252.67,108.95c2.21,3.7,6.01,5.21,9.01,3.42,2.93-1.75,3.48-5.82,1.2-9.62-1.71-2.86-5.31-5.63-8.93-3.46-3.63,2.17-3.19,6.45-1.27,9.66Z" stroke="#fff" stroke-width=".5"/><path d="M272.66,104.34c1.26.11,3.25-.14,4.82-.99,2.29-1.24,2.74-2.96,1.97-4.39-.81-1.5-2.15-1.84-4.94-1.44-3.71.57-6.1-.35-7.22-2.42-1.51-2.79-.49-6.29,3.22-8.3,1.75-.95,3.56-1.28,4.83-1.23l.45,2.71c-.91-.06-2.47.04-4.08.91-1.86,1.01-2.32,2.64-1.62,3.93.77,1.43,2.16,1.51,4.87,1.15,3.62-.48,5.97.19,7.36,2.76,1.64,3.04.44,6.46-3.67,8.68-1.9,1.02-3.9,1.51-5.5,1.45l-.51-2.82Z" stroke="#fff" stroke-width=".5"/><path d="M286.51,90.76c2.19,4.31,5.84,4.75,9.06,3.18,2.3-1.12,3.49-2.2,4.45-3.3l1.67,2.03c-.88,1.06-2.53,2.59-5.35,3.96-5.44,2.66-10.44.66-13.04-4.67-2.6-5.33-1.51-11.07,3.64-13.58,5.77-2.82,9.78,1.51,11.37,4.77.32.66.5,1.2.62,1.55l-12.42,6.06ZM294.81,83.86c-.96-2.06-3.39-4.81-7.01-3.05-3.25,1.59-3.21,5.28-2.38,7.63l9.39-4.58Z" stroke="#fff" stroke-width=".5"/><path d="M54.91,524.35l-26.46,11.38-.35-3.8,13.05-5.47c3.57-1.51,6.8-2.82,9.93-3.84v-.08c-3.23-.48-6.78-1.3-10.45-2.19l-13.89-3.39-.34-3.76,28.16,7.28.35,3.88Z" stroke="#fff" stroke-width=".5"/><path d="M28.33,506.15c1.22-.11,2.24.73,2.32,2.15.07,1.26-.85,2.21-2.07,2.27-1.26.07-2.28-.81-2.36-2.11-.07-1.34.85-2.24,2.11-2.32ZM53.7,508.74l-19.63,1.09-.2-3.57,19.63-1.09.2,3.57Z" stroke="#fff" stroke-width=".5"/><path d="M42.7,482.02c7.27-.25,10.61,4.68,10.77,9.43.18,5.32-3.58,9.55-9.79,9.76-6.58.22-10.58-3.95-10.77-9.39-.19-5.64,3.78-9.6,9.79-9.81ZM43.43,497.61c4.3-.15,7.47-2.73,7.35-6.23-.12-3.41-3.41-5.86-7.84-5.71-3.33.11-7.5,1.92-7.35,6.14.14,4.23,4.1,5.92,7.84,5.79Z" stroke="#fff" stroke-width=".5"/><path d="M24.13,476.94l.06-3.57,28.84.49-.06,3.57-28.84-.49Z" stroke="#fff" stroke-width=".5"/><path d="M44.06,465.6c4.83.17,6.98-2.82,7.16-6.39.13-2.56-.24-4.13-.74-5.49l2.59-.48c.5,1.29,1.04,3.47.88,6.6-.31,6.05-4.47,9.46-10.4,9.15-5.93-.3-10.42-4.03-10.12-9.75.33-6.41,6.06-7.83,9.67-7.65.73.04,1.29.15,1.66.21l-.7,13.8ZM42.04,455c-2.27-.16-5.85.64-6.06,4.66-.18,3.61,3.06,5.36,5.52,5.77l.53-10.43Z" stroke="#fff" stroke-width=".5"/><path d="M29.51,441.42l5.63.51.46-5.1,2.71.25-.46,5.1,10.57.96c2.43.22,3.87-.35,4.05-2.33.08-.93.03-1.63-.06-2.09l2.69.08c.22.71.32,1.83.2,3.2-.15,1.66-.8,2.95-1.84,3.71-1.14.92-2.92,1.12-5.23.91l-10.69-.97-.28,3.04-2.71-.25.27-3.03-4.69-.43-.62-3.56Z" stroke="#fff" stroke-width=".5"/><path d="M678.32,81.75c-3.8,8.63-11.05,10.9-17.45,8.09-6.62-2.91-9.01-10.09-5.67-17.68,3.5-7.96,10.74-10.99,17.44-8.05,6.85,3.01,8.97,10.2,5.69,17.64ZM658.69,73.6c-2.36,5.36-1.57,11.43,3.53,13.68,5.13,2.26,10.11-1.19,12.62-6.88,2.19-4.98,1.88-11.34-3.52-13.71-5.36-2.36-10.21,1.41-12.63,6.92Z" stroke="#fff" stroke-width=".5"/><path d="M682.4,84.39c1.03-2.07,1.88-3.88,2.59-5.57l2.8,1.39-1.61,3.51.15.07c1.98-1.97,4.65-2.5,6.79-1.43.36.18.6.34.86.56l-1.5,3.02c-.29-.24-.6-.43-1.04-.65-2.26-1.12-4.71-.21-6.34,1.98-.29.4-.62.87-.89,1.42l-4.67,9.39-3.17-1.57,6.02-12.12Z" stroke="#fff" stroke-width=".5"/><path d="M697.43,107.48l.94-2.31-.11-.06c-1.7.83-4.22,1.04-6.68-.31-3.5-1.9-3.94-5.34-2.58-7.84,2.27-4.18,7.23-4.44,13.89-.77l.19-.36c.78-1.43,1.78-4.21-1.75-6.14-1.61-.87-3.56-1.29-5.2-1.16l.41-2.46c1.93-.15,4.33.37,6.51,1.56,5.28,2.88,4.61,7.18,2.72,10.64l-3.52,6.46c-.82,1.5-1.54,3-1.97,4.3l-2.86-1.55ZM701.76,98.41c-3.39-1.94-7.61-3.45-9.44-.09-1.11,2.03-.28,3.74,1.33,4.61,2.25,1.22,4.45.57,5.75-.62.28-.26.55-.58.72-.9l1.63-3Z" stroke="#fff" stroke-width=".5"/><path d="M712.16,99.3c1.06-1.74,1.89-3.18,2.63-4.63l2.71,1.65-1.51,2.88.07.04c1.8-1.09,4.7-1.47,7.48.22,2.33,1.41,5.09,5,1.59,10.76l-6.1,10.03-3.06-1.86,5.89-9.69c1.65-2.71,2.01-5.58-.87-7.33-2.02-1.23-4.44-.75-6,.63-.37.3-.76.77-1.07,1.3l-6.14,10.11-3.06-1.86,7.45-12.26Z" stroke="#fff" stroke-width=".5"/><path d="M748.68,116.49c-.87,1.13-1.83,2.39-3.17,4.38l-6.43,9.44c-2.54,3.73-4.83,5.51-7.37,5.85-2.58.4-5.19-.68-7.24-2.08-1.95-1.33-3.78-3.26-4.49-5.02l2.27-1.75c.62,1.4,1.89,3.15,3.9,4.52,3.02,2.06,6.31,1.99,9.1-2.11l1.23-1.81-.07-.04c-1.94.89-4.5.91-7.02-.8-4.03-2.74-4.59-8.14-1.53-12.64,3.75-5.51,9.47-6.19,13.2-3.65,2.82,1.92,3.36,4.45,3.15,6.27l.07.05,1.8-2.36,2.59,1.76ZM741.26,120.82c.34-.5.61-.96.75-1.46.63-2.08.14-4.47-2-5.94-2.82-1.92-6.46-.91-9.02,2.86-2.17,3.19-2.37,6.94.83,9.11,1.81,1.24,4.24,1.21,6.16-.23.51-.39.97-.91,1.31-1.42l1.99-2.92Z" stroke="#fff" stroke-width=".5"/><path d="M749.16,129.83c-2.85,3.91-1.58,7.36,1.27,9.51,2.04,1.54,3.55,2.12,4.96,2.47l-1.06,2.41c-1.35-.31-3.46-1.08-5.96-2.97-4.83-3.65-5.32-9-1.75-13.74,3.57-4.74,9.18-6.36,13.75-2.91,5.12,3.87,3.08,9.41.91,12.29-.44.58-.85.99-1.1,1.26l-11.03-8.32ZM759.07,134.1c1.4-1.79,2.75-5.2-.46-7.62-2.89-2.18-6.16-.47-7.88,1.33l8.34,6.29Z" stroke="#fff" stroke-width=".5"/><path d="M914.95,417.13c-.87-1.16-1.97-3.61-2.56-6.89-1.37-7.6,2.39-14.18,11.23-15.78,8.44-1.52,15.18,3.16,16.69,11.52.61,3.36.27,5.61-.04,6.62l-2.99-.33c.4-1.44.54-3.4.14-5.64-1.14-6.32-5.94-9.79-13.01-8.51-6.6,1.19-10.15,5.75-8.97,12.31.38,2.12,1.21,4.2,2.15,5.48l-2.63,1.22Z" stroke="#fff" stroke-width=".5"/><path d="M943.24,417.6l.45,3.55-12.18,1.53v.08c1.09.44,2.09,1.21,2.83,2.23.74.97,1.3,2.17,1.46,3.5.33,2.62-.76,7.02-7.49,7.86l-11.62,1.46-.45-3.55,11.21-1.41c3.15-.4,5.66-1.9,5.24-5.25-.29-2.3-2.13-3.91-4.15-4.31-.51-.14-1.04-.12-1.73-.03l-11.78,1.48-.45-3.55,28.63-3.6Z" stroke="#fff" stroke-width=".5"/><path d="M918.05,454.15l2.45-.48v-.12c-1.63-.97-3.17-2.98-3.39-5.77-.31-3.97,2.33-6.21,5.17-6.43,4.74-.36,7.66,3.65,8.2,11.23l.4-.03c1.62-.12,4.51-.8,4.2-4.81-.14-1.82-.85-3.68-1.85-4.99l2.29-.99c1.18,1.54,2.05,3.84,2.24,6.31.46,6-3.52,7.77-7.45,8.07l-7.33.56c-1.7.13-3.36.34-4.68.68l-.25-3.24ZM928.02,452.86c-.22-3.9-1.25-8.26-5.06-7.97-2.31.18-3.29,1.8-3.15,3.62.2,2.55,1.94,4.05,3.65,4.49.37.09.79.14,1.15.12l3.41-.26Z" stroke="#fff" stroke-width=".5"/><path d="M932.05,462.07c2.31-.09,4.3-.21,6.13-.4l.12,3.13-3.85.27v.16c2.68.79,4.43,2.88,4.52,5.27.02.41-.01.69-.08,1.02l-3.37.13c.07-.37.09-.74.07-1.22-.1-2.52-2.07-4.23-4.77-4.62-.49-.06-1.06-.12-1.67-.1l-10.47.41-.14-3.53,13.52-.52Z" stroke="#fff" stroke-width=".5"/><path d="M944.31,480.75l-5.65.03.03,5.12-2.72.02-.03-5.12-10.61.07c-2.44.01-3.82.71-3.8,2.71,0,.93.13,1.62.26,2.07l-2.68.18c-.29-.69-.5-1.79-.51-3.17,0-1.67.51-3.01,1.48-3.87,1.05-1.02,2.8-1.4,5.11-1.41l10.73-.07-.02-3.05,2.72-.02.02,3.05,4.72-.03.96,3.49Z" stroke="#fff" stroke-width=".5"/><path d="M932.49,490.19c2.32.06,4.31.07,6.14-.01l-.08,3.13-3.86.03v.16c2.61.96,4.23,3.15,4.17,5.55-.01.41-.06.69-.15,1.01l-3.37-.08c.09-.36.14-.73.15-1.21.06-2.52-1.8-4.35-4.47-4.91-.49-.09-1.05-.19-1.66-.2l-10.48-.26.09-3.54,13.53.33Z" stroke="#fff" stroke-width=".5"/><path d="M927.7,505.03c-4.83-.25-7.03,2.69-7.28,6.26-.17,2.56.17,4.13.64,5.5l-2.6.43c-.48-1.3-.98-3.49-.77-6.61.42-6.04,4.64-9.37,10.56-8.97,5.92.41,10.34,4.22,9.95,9.93-.44,6.41-6.19,7.72-9.8,7.47-.73-.05-1.29-.17-1.65-.24l.95-13.78ZM929.53,515.67c2.27.2,5.86-.53,6.14-4.54.25-3.61-2.96-5.42-5.42-5.87l-.72,10.42Z" stroke="#fff" stroke-width=".5"/><path d="M920.8,539.41c-2.02-.22-3.8-.38-5.35-.43l.35-3.15,3.21.15v-.08c-1.46-1.1-3.3-3.39-2.91-6.87.34-3.07,2.44-6.56,9.31-5.8l11.43,1.26-.39,3.55-10.83-1.2c-3.72-.41-6.35.45-6.7,3.68-.26,2.38,1.21,4.23,2.71,5.04.5.26,1.14.46,1.78.52l12,1.33-.39,3.56-14.22-1.57Z" stroke="#fff" stroke-width=".5"/><path d="M918.35,544.48c-.85.94-1.86,2.67-2.13,4.44-.4,2.57.7,3.98,2.31,4.22,1.69.26,2.77-.6,4.14-3.06,1.79-3.3,3.97-4.65,6.3-4.29,3.13.49,5.31,3.42,4.66,7.6-.31,1.97-1.14,3.61-1.95,4.59l-2.43-1.28c.6-.69,1.46-1.99,1.74-3.8.32-2.09-.7-3.44-2.15-3.66-1.61-.25-2.51.8-3.87,3.18-1.81,3.17-3.76,4.64-6.66,4.19-3.41-.53-5.41-3.55-4.7-8.17.33-2.13,1.16-4.02,2.18-5.26l2.56,1.3Z" stroke="#fff" stroke-width=".5"/><path d="M920.78,563.76c-4.76-.86-7.31,1.78-8.01,5.29-.5,2.51-.36,4.11-.06,5.54l-2.63.1c-.31-1.35-.53-3.58.08-6.65,1.18-5.94,5.79-8.71,11.61-7.55,5.82,1.15,9.72,5.49,8.6,11.11-1.25,6.3-7.12,6.87-10.67,6.17-.72-.14-1.26-.33-1.61-.45l2.69-13.55ZM921.25,574.54c2.22.48,5.88.22,6.67-3.73.71-3.55-2.25-5.75-4.63-6.52l-2.03,10.24Z" stroke="#fff" stroke-width=".5"/><path d="M667.45,903.44c1.84.25,4.29.05,6.52-.94,3.3-1.47,4.46-4.08,3.33-6.6-1.04-2.34-2.97-3.08-6.93-2.88-4.73.37-8.19-.62-9.76-4.15-1.74-3.9.21-8.23,5.07-10.4,2.56-1.14,4.68-1.37,6.08-1.24l.28,3.03c-1.01-.08-3.02-.08-5.28.93-3.41,1.52-3.8,4.14-3.05,5.85,1.04,2.34,3.08,2.81,7.12,2.61,4.96-.25,8.02.83,9.66,4.51,1.72,3.86.35,8.48-5.56,11.1-2.41,1.07-5.36,1.54-7.09,1.25l-.39-3.07Z" stroke="#fff" stroke-width=".5"/><path d="M682.53,886.81c-1.14-2.25-2.12-4.03-3.04-5.66l2.87-1.45,1.66,2.94.07-.04c.23-2.8,1.65-5.11,4.52-6.56,4.24-2.14,9.25-.16,11.94,5.17,3.19,6.31.91,11.37-3.22,13.46-2.32,1.17-4.87,1.18-6.8-.03l-.07.04,4.82,9.54-3.16,1.59-9.59-19.02ZM688.04,889.9c.24.47.53.87.8,1.23,1.7,1.92,4.39,2.47,6.68,1.32,3.37-1.7,3.94-5.45,1.91-9.48-1.78-3.52-5.15-5.6-8.52-3.89-2.18,1.1-3.42,3.68-2.83,6.39.09.45.22.98.44,1.42l1.52,3.01Z" stroke="#fff" stroke-width=".5"/><path d="M703.07,875.88c-1.13-2.02-2.13-3.74-3.12-5.28l2.73-1.52,1.98,3.31.14-.08c-.5-2.74.57-5.25,2.66-6.41.35-.2.62-.3.95-.39l1.64,2.95c-.36.11-.7.25-1.12.49-2.2,1.23-2.83,3.76-1.96,6.34.17.47.37,1,.67,1.53l5.1,9.16-3.09,1.72-6.58-11.82Z" stroke="#fff" stroke-width=".5"/><path d="M712.34,857.13c.66,1.03.38,2.32-.84,3.05-1.09.64-2.35.26-2.97-.79-.64-1.09-.33-2.4.79-3.06,1.16-.68,2.39-.28,3.03.81ZM721.73,880.86l-10.01-16.94,3.08-1.82,10.01,16.94-3.08,1.82Z" stroke="#fff" stroke-width=".5"/><path d="M722.71,863.63c-1.1-1.71-2.03-3.09-3.01-4.39l2.67-1.71,1.93,2.63.07-.04c-.19-2.1.74-4.87,3.48-6.62,2.29-1.47,6.73-2.38,10.36,3.3l6.34,9.89-3.01,1.93-6.11-9.54c-1.71-2.67-4.13-4.26-6.97-2.44-1.98,1.27-2.62,3.66-2.06,5.67.1.46.36,1.02.69,1.53l6.38,9.96-3.01,1.93-7.74-12.08Z" stroke="#fff" stroke-width=".5"/><path d="M752.42,837.1c.76,1.2,1.62,2.54,3.01,4.49l6.64,9.29c2.62,3.67,3.5,6.44,2.94,8.94-.51,2.57-2.43,4.63-4.45,6.08-1.92,1.37-4.37,2.42-6.27,2.48l-.85-2.74c1.53-.09,3.61-.68,5.59-2.1,2.98-2.13,4.05-5.24,1.17-9.27l-1.28-1.79-.07.05c.17,2.13-.7,4.54-3.18,6.32-3.97,2.83-9.22,1.49-12.39-2.94-3.87-5.42-2.53-11.03,1.14-13.65,2.78-1.98,5.34-1.61,6.98-.79l.07-.05-1.59-2.51,2.55-1.82ZM753.92,845.57c-.35-.5-.69-.9-1.11-1.2-1.73-1.31-4.15-1.68-6.26-.17-2.78,1.98-3.09,5.75-.44,9.46,2.24,3.14,5.7,4.62,8.84,2.38,1.79-1.28,2.6-3.56,1.91-5.86-.19-.61-.52-1.22-.88-1.72l-2.05-2.88Z" stroke="#fff" stroke-width=".5"/></g><circle cx="486" cy="485.9" r="485.87" fill="none"/></g><g id="degrees"><ellipse cx="486" cy="485.9" rx="472.26" ry="472.16" fill="none"/><path d="M487.11,7.4c.07,4.18-1.44,6.51-4.16,6.55-2.4.04-4.06-2.18-4.17-6.24-.07-4.12,1.67-6.41,4.16-6.46,2.59-.04,4.1,2.24,4.17,6.15ZM480.44,7.7c.05,3.19,1.07,4.99,2.58,4.96,1.7-.03,2.48-2.03,2.43-5.16-.05-3.02-.86-4.99-2.58-4.96-1.45.03-2.48,1.82-2.43,5.16Z"/><path d="M493.5,3.32c-.03,1.53-1.27,2.51-2.57,2.49-1.47-.02-2.46-1.16-2.43-2.48,0-1.45,1.16-2.53,2.55-2.51,1.55.03,2.48,1.21,2.45,2.5ZM489.51,3.35c-.01.87.62,1.56,1.45,1.57.85.01,1.5-.67,1.52-1.6.01-.7-.39-1.59-1.47-1.61-.98-.02-1.49.82-1.5,1.64Z"/><ellipse cx="486" cy="485.9" rx="472.26" ry="472.16" fill="none"/><path d="M234.81,83.72c.56.01,1.74-.16,2.72-.77,1.82-1.12,1.67-2.62,1.12-3.48-.92-1.45-2.62-1.27-3.99-.43l-.79.48-.65-1.06.79-.48c1.03-.63,2.01-1.97,1.24-3.21-.51-.84-1.5-1.25-2.8-.45-.84.51-1.41,1.38-1.67,1.98l-1-.8c.3-.74,1.11-1.8,2.24-2.49,2.06-1.27,3.75-.62,4.53.65.66,1.08.58,2.39-.42,3.65l.02.03c1.45-.53,3.09-.21,3.99,1.25,1.03,1.67.63,3.94-1.88,5.48-1.17.72-2.43.99-3.16.97l-.29-1.33Z"/><path d="M243.05,78.68c.56.02,1.74-.13,2.74-.71,1.84-1.08,1.72-2.59,1.19-3.46-.89-1.47-2.6-1.32-3.98-.51l-.8.47-.63-1.07.8-.47c1.04-.61,2.05-1.92,1.31-3.18-.5-.85-1.47-1.28-2.79-.51-.85.5-1.44,1.35-1.71,1.94l-.99-.82c.32-.73,1.15-1.77,2.29-2.44,2.09-1.22,3.76-.54,4.51.75.64,1.09.53,2.4-.49,3.64l.02.03c1.46-.5,3.09-.15,3.96,1.33,1,1.7.55,3.95-2,5.44-1.19.7-2.45.93-3.18.9l-.26-1.34Z"/><path d="M256.04,66.22c2.04,3.64,1.81,6.41-.56,7.74-2.09,1.17-4.61,0-6.62-3.52-2.01-3.59-1.57-6.44.61-7.65,2.26-1.26,4.67.03,6.58,3.44ZM250.31,69.64c1.56,2.79,3.3,3.89,4.62,3.15,1.48-.83,1.22-2.96-.31-5.69-1.48-2.64-3.12-3.99-4.62-3.15-1.27.71-1.33,2.78.31,5.69Z"/><path d="M259.58,59.52c.73,1.35.12,2.81-1.03,3.43-1.3.7-2.71.19-3.34-.97-.71-1.27-.23-2.77,1-3.44,1.36-.73,2.75-.15,3.36.98ZM256.11,61.49c.41.77,1.3,1.06,2.03.67.75-.4.98-1.32.54-2.14-.33-.62-1.12-1.2-2.07-.69-.87.47-.89,1.45-.51,2.16Z"/><ellipse cx="486" cy="485.9" rx="472.26" ry="472.16" fill="none"/><path d="M66.4,264.87c.49-.27,1.42-1.01,1.97-2.03,1.01-1.88.12-3.11-.78-3.57-1.52-.8-2.9.22-3.66,1.63l-.44.81-1.1-.59.44-.82c.57-1.06.75-2.71-.53-3.39-.87-.46-1.93-.33-2.65,1.02-.47.87-.53,1.9-.45,2.55l-1.27-.19c-.11-.79.06-2.11.69-3.27,1.14-2.13,2.93-2.42,4.24-1.71,1.11.6,1.71,1.77,1.47,3.36l.03.02c.98-1.19,2.56-1.73,4.07-.92,1.73.93,2.52,3.09,1.13,5.68-.65,1.21-1.61,2.07-2.24,2.42l-.92-1.01Z"/><path d="M71.01,247.46c3.64,2.05,4.88,4.53,3.55,6.9-1.18,2.09-3.93,2.4-7.49.44-3.59-2.02-4.69-4.68-3.47-6.85,1.27-2.25,4-2.41,7.41-.49ZM67.9,253.36c2.78,1.57,4.84,1.6,5.59.29.84-1.48-.49-3.16-3.23-4.7-2.63-1.48-4.74-1.78-5.59-.29-.71,1.27.31,3.06,3.23,4.7Z"/><path d="M75.98,239.06c3.59,2.13,4.78,4.63,3.4,6.97-1.22,2.06-3.98,2.32-7.49.28-3.54-2.1-4.59-4.78-3.32-6.92,1.32-2.23,4.05-2.32,7.41-.33ZM72.74,244.89c2.75,1.62,4.81,1.7,5.58.4.87-1.46-.43-3.17-3.12-4.77-2.6-1.54-4.7-1.88-5.57-.4-.74,1.25.25,3.06,3.12,4.77Z"/><path d="M75.67,231.51c1.3.8,1.51,2.37.83,3.48-.77,1.25-2.24,1.52-3.37.83-1.25-.74-1.59-2.28-.86-3.47.81-1.32,2.3-1.51,3.4-.84ZM73.67,234.96c.74.45,1.66.26,2.09-.44.44-.72.19-1.64-.6-2.12-.6-.37-1.57-.48-2.13.44-.51.84-.05,1.7.65,2.12Z"/><ellipse cx="486" cy="485.9" rx="486" ry="485.9" fill="none"/><path d="M57.11,714.68l.9-.49,1.74.54c4.12,1.32,6.19,1.81,7.83.94,1.1-.6,1.82-1.68.94-3.29-.53-.98-1.47-1.52-2.16-1.79l.77-1.02c1.04.4,2.08,1.21,2.76,2.45,1.27,2.32.21,4.17-1.34,5.01-1.99,1.08-4.39.52-7.81-.56l-1.27-.43-.03.02,2.64,4.84-1.21.66-3.75-6.88Z"/><path d="M74.83,724.09l-2.33-4.07-2.97,1.16c.17.23.34.44.56.83.47.82.76,1.74.74,2.62,0,1.11-.52,2.32-1.87,3.09-2.08,1.19-4.59.43-5.91-1.89-.67-1.17-.9-2.34-.86-3.03l1.31-.27c0,.59.16,1.65.71,2.62.78,1.36,2.33,2.02,3.76,1.2,1.37-.8,1.83-2.29.61-4.42-.35-.61-.69-1.04-.96-1.41l5.51-2.24,2.92,5.1-1.21.69Z"/><path d="M76.1,735.27c-3.58,2.14-6.36,2-7.75-.34-1.23-2.06-.13-4.61,3.33-6.72,3.54-2.11,6.39-1.75,7.67.39,1.33,2.22.11,4.67-3.25,6.68ZM72.52,729.64c-2.74,1.64-3.79,3.41-3.02,4.71.87,1.46,2.99,1.14,5.69-.47,2.6-1.55,3.9-3.23,3.02-4.71-.75-1.25-2.81-1.25-5.69.47Z"/><path d="M82.89,738.2c-1.3.81-2.8.29-3.49-.82-.78-1.25-.36-2.69.77-3.39,1.23-.78,2.76-.4,3.49.79.82,1.32.32,2.74-.77,3.42ZM80.71,734.86c-.74.46-.98,1.36-.54,2.07.45.72,1.38.9,2.17.41.59-.37,1.13-1.19.56-2.1-.52-.84-1.5-.8-2.19-.38Z"/><ellipse cx="486" cy="485.9" rx="486" ry="485.9" fill="none"/><path d="M228.4,898.02l.53-.87,1.77-.4c4.24-.9,6.27-1.51,7.26-3.07.65-1.06.74-2.36-.82-3.32-.95-.59-2.03-.59-2.76-.48l.16-1.27c1.1-.17,2.41.02,3.61.76,2.25,1.38,2.25,3.51,1.33,5.01-1.19,1.93-3.55,2.63-7.06,3.4l-1.31.26-.02.03,4.7,2.89-.72,1.17-6.68-4.11Z"/><path d="M236.6,903.05l.52-.88,1.76-.43c4.21-.98,6.24-1.63,7.19-3.22.63-1.07.69-2.37-.88-3.3-.96-.56-2.04-.54-2.77-.42l.14-1.28c1.1-.19,2.4-.03,3.62.69,2.28,1.34,2.32,3.46,1.43,4.98-1.15,1.95-3.49,2.7-6.98,3.54l-1.3.28-.02.03,4.75,2.79-.7,1.19-6.75-3.97Z"/><path d="M255.1,906.44c-2.04,3.64-4.52,4.89-6.9,3.56-2.09-1.18-2.41-3.93-.45-7.49,2.02-3.59,4.68-4.7,6.85-3.48,2.26,1.27,2.41,4,.5,7.41ZM249.19,903.34c-1.56,2.79-1.59,4.85-.28,5.59,1.48.83,3.16-.5,4.7-3.24,1.48-2.64,1.78-4.75.28-5.59-1.27-.71-3.06.32-4.7,3.24Z"/><path d="M262.46,905.63c-.73,1.34-2.28,1.64-3.43,1.02-1.3-.7-1.65-2.16-1.02-3.32.68-1.29,2.19-1.71,3.42-1.05,1.36.74,1.64,2.22,1.02,3.35ZM258.91,903.82c-.41.76-.17,1.67.56,2.06.75.4,1.65.1,2.09-.72.33-.61.39-1.59-.56-2.1-.86-.47-1.7.05-2.09.76Z"/><ellipse cx="486" cy="485.9" rx="486" ry="485.9" fill="none"/><path d="M891.28,734.21l-.02.03-.13,2.42-1.25-.39.18-3.04.74-1.21,10.47,6.42-.84,1.37-9.15-5.61Z"/><path d="M903.57,734.69l-.88-.52-.43-1.77c-.99-4.22-1.64-6.24-3.23-7.19-1.07-.63-2.38-.69-3.3.89-.57.96-.54,2.05-.42,2.77l-1.28-.14c-.19-1.1-.03-2.41.68-3.63,1.34-2.28,3.47-2.32,4.98-1.44,1.96,1.15,2.71,3.49,3.55,6.99l.29,1.31.03.02,2.79-4.76,1.19.7-3.97,6.76Z"/><path d="M906.93,716.2c3.64,2.04,4.9,4.51,3.57,6.89-1.17,2.09-3.93,2.41-7.49.46-3.59-2.01-4.7-4.67-3.49-6.84,1.26-2.26,3.99-2.42,7.41-.51ZM903.84,722.11c2.79,1.56,4.85,1.59,5.59.27.83-1.48-.5-3.16-3.24-4.69-2.64-1.48-4.75-1.77-5.59-.27-.71,1.27.32,3.06,3.24,4.69Z"/><path d="M906.12,708.79c1.35.73,1.65,2.28,1.03,3.43-.7,1.3-2.16,1.65-3.32,1.02-1.29-.67-1.72-2.19-1.05-3.42.73-1.36,2.22-1.64,3.35-1.03ZM904.32,712.35c.77.41,1.67.17,2.06-.56.4-.75.09-1.65-.72-2.09-.62-.33-1.59-.39-2.11.56-.47.87.05,1.7.76,2.09Z"/><ellipse cx="486" cy="485.9" rx="486" ry="485.9" fill="none"/><path d="M714.41,902.7l-.03.02-1.32,2.04-.89-.95,1.66-2.55,1.24-.68,5.91,10.76-1.41.77-5.16-9.4Z"/><path d="M725.77,896.1l-4.06,2.34,1.17,2.97c.23-.17.44-.34.83-.57.82-.47,1.74-.76,2.62-.75,1.11,0,2.32.51,3.1,1.86,1.2,2.08.44,4.59-1.87,5.92-1.16.67-2.33.91-3.03.87l-.27-1.31c.59,0,1.65-.16,2.62-.72,1.36-.78,2.01-2.34,1.19-3.76-.81-1.37-2.29-1.82-4.42-.59-.61.35-1.04.69-1.41.96l-2.26-5.5,5.09-2.93.7,1.21Z"/><path d="M736.96,894.77c2.15,3.57,2.02,6.34-.31,7.75-2.05,1.24-4.6.15-6.73-3.3-2.12-3.52-1.78-6.38.36-7.67,2.22-1.34,4.67-.12,6.68,3.22ZM731.35,898.37c1.65,2.73,3.42,3.78,4.72,3,1.45-.88,1.13-2.99-.49-5.68-1.56-2.59-3.25-3.88-4.72-3-1.24.75-1.23,2.82.49,5.68Z"/><path d="M739.88,887.98c.81,1.3.3,2.8-.8,3.49-1.25.78-2.69.37-3.39-.75-.79-1.22-.41-2.75.78-3.49,1.31-.82,2.73-.33,3.41.76ZM736.55,890.17c.46.74,1.37.97,2.07.53.72-.45.89-1.38.4-2.17-.37-.59-1.19-1.13-2.11-.55-.83.52-.8,1.5-.37,2.19Z"/><ellipse cx="486" cy="485.9" rx="472.26" ry="472.16" fill="none"/><path d="M902.77,240.93c-.16-.3-.4-.66-.7-1.03-1.71-2.02-4.06-2.22-5.94-1.43l.03.05c.97.1,2.04.65,2.74,1.82,1.12,1.87.56,3.98-1.51,5.21-1.93,1.15-4.5.91-5.81-1.28-1.35-2.25-.48-4.78,2.26-6.42,2.08-1.24,4.16-1.47,5.82-1.06,1.38.36,2.62,1.21,3.57,2.44.32.38.55.73.7.99l-1.17.7ZM896.44,244.16c1.51-.9,1.9-2.3,1.12-3.62-.51-.86-1.52-1.33-2.52-1.27-.22,0-.47.06-.73.21-1.72,1.07-2.52,2.63-1.63,4.12.74,1.23,2.25,1.45,3.76.55Z"/><path d="M904.04,252.86c-3.63,2.07-6.39,1.86-7.74-.5-1.19-2.08-.04-4.61,3.47-6.65,3.58-2.04,6.42-1.62,7.66.55,1.28,2.25.01,4.67-3.39,6.6ZM900.57,247.16c-2.77,1.58-3.86,3.33-3.11,4.64.84,1.48,2.97,1.2,5.69-.35,2.62-1.5,3.96-3.15,3.11-4.64-.72-1.26-2.79-1.3-5.69.35Z"/><path d="M910.74,256.3c-1.34.74-2.81.14-3.44-1-.71-1.29-.21-2.7.94-3.34,1.27-.72,2.77-.25,3.45.98.74,1.36.17,2.75-.95,3.37ZM908.74,252.86c-.76.42-1.05,1.31-.65,2.04.41.75,1.33.97,2.14.53.61-.34,1.19-1.13.67-2.07-.47-.86-1.45-.88-2.17-.49Z"/><ellipse cx="486" cy="485.9" rx="472.26" ry="472.16" fill="none"/><path d="M713.62,69.91c.26.49.99,1.44,2,2,1.86,1.04,3.1.17,3.58-.72.82-1.51-.17-2.91-1.57-3.69l-.81-.45.61-1.09.81.45c1.05.59,2.69.79,3.4-.48.48-.86.36-1.92-.98-2.66-.86-.48-1.89-.56-2.54-.49l.21-1.27c.79-.1,2.11.1,3.26.74,2.11,1.18,2.37,2.96,1.64,4.27-.62,1.1-1.8,1.68-3.38,1.42l-.02.03c1.17,1,1.69,2.59.85,4.09-.96,1.71-3.13,2.47-5.7,1.03-1.2-.67-2.05-1.64-2.38-2.28l1.02-.9Z"/><path d="M730.95,74.79c-2.11,3.6-4.61,4.81-6.95,3.43-2.07-1.21-2.34-3.97-.32-7.49,2.08-3.55,4.76-4.61,6.91-3.35,2.23,1.31,2.34,4.04.37,7.41ZM725.1,71.59c-1.61,2.75-1.68,4.81-.38,5.58,1.47.86,3.17-.44,4.75-3.15,1.53-2.61,1.86-4.71.38-5.58-1.25-.73-3.06.26-4.75,3.15Z"/><path d="M738.51,74.46c-.79,1.31-2.36,1.53-3.48.85-1.26-.76-1.54-2.24-.85-3.37.74-1.25,2.28-1.6,3.47-.88,1.32.8,1.52,2.29.86,3.39ZM735.05,72.47c-.45.74-.25,1.66.46,2.09.73.44,1.64.18,2.12-.61.36-.6.47-1.57-.45-2.13-.84-.51-1.7-.04-2.12.66Z"/><ellipse cx="486" cy="485.9" rx="472.26" ry="472.16" fill="none"/><path d="M14.01,502.51l-1.02.03-1.3-1.27c-3.07-3.06-4.69-4.43-6.54-4.4-1.25.03-2.38.67-2.34,2.5.03,1.12.62,2.03,1.11,2.58l-1.16.56c-.74-.83-1.3-2.03-1.34-3.44-.07-2.64,1.71-3.81,3.47-3.85,2.27-.06,4.14,1.54,6.7,4.06l.93.96h.04s-.15-5.52-.15-5.52l1.38-.04.21,7.84Z"/><path d="M1.4,485.09l1.1-.02,11.27,5.16.03,1.72-10.95-5.15h-.04s.1,6.01.1,6.01l-1.38.02-.13-7.74Z"/><path d="M7.58,475c4.18.07,6.45,1.66,6.41,4.38-.04,2.4-2.32,3.99-6.38,3.96-4.12-.07-6.36-1.88-6.31-4.38.04-2.59,2.37-4.02,6.28-3.96ZM7.66,481.68c3.19.05,5.02-.9,5.05-2.41.03-1.7-1.94-2.55-5.08-2.6-3.02-.05-5.02.69-5.05,2.41-.02,1.45,1.73,2.54,5.08,2.6Z"/><path d="M3.55,468.56c1.53.05,2.49,1.3,2.45,2.61-.04,1.47-1.19,2.44-2.51,2.4-1.46-.03-2.52-1.19-2.47-2.59.05-1.55,1.25-2.46,2.53-2.42ZM3.52,472.55c.87.03,1.57-.6,1.59-1.43.03-.85-.65-1.51-1.58-1.54-.7-.02-1.6.37-1.63,1.44-.03.98.8,1.5,1.62,1.52Z"/><ellipse cx="486" cy="485.9" rx="472.26" ry="472.16" fill="none"/><path d="M959.32,475.03c-.03.36.01.77.08,1.34.15.96.56,1.86,1.23,2.55.75.8,1.84,1.37,3.3,1.57v-.06c-.84-.67-1.35-1.64-1.37-2.87-.04-2.21,1.6-3.66,3.7-3.69,2.32-.04,4.39,1.61,4.43,4.12.04,2.51-1.97,4.09-5.11,4.15-2.7.05-4.61-.83-5.8-2.02-.94-.93-1.53-2.22-1.7-3.54-.1-.6-.13-1.13-.12-1.53l1.36-.02ZM966.4,475.52c-1.53.03-2.59.97-2.57,2.4.02,1.12.58,1.98,1.32,2.4.15.09.34.14.61.14,2.1-.04,3.69-.84,3.66-2.57-.02-1.42-1.29-2.4-3.03-2.37Z"/><path d="M964.46,491.94c-4.18-.07-6.46-1.66-6.41-4.38.04-2.4,2.32-3.99,6.38-3.96,4.12.07,6.36,1.88,6.31,4.38-.04,2.59-2.37,4.02-6.28,3.96ZM964.38,485.26c-3.19-.05-5.02.9-5.05,2.41-.03,1.7,1.94,2.55,5.08,2.6,3.02.05,5.02-.69,5.05-2.41.03-1.45-1.73-2.54-5.08-2.6Z"/><path d="M968.6,498.27c-1.53-.03-2.51-1.28-2.48-2.58.03-1.47,1.16-2.45,2.49-2.43,1.45.01,2.53,1.16,2.5,2.56-.03,1.55-1.22,2.47-2.51,2.44ZM968.59,494.29c-.87-.02-1.56.61-1.58,1.44-.02.85.67,1.51,1.6,1.52.7.01,1.59-.39,1.62-1.46.02-.98-.82-1.49-1.63-1.51Z"/><ellipse cx="486" cy="485.9" rx="486" ry="485.9" fill="none"/><path d="M472.38,960.56h-.04l-2.23,1.13-.3-1.31,2.8-1.4,1.46.04-.34,12.64-1.65-.04.3-11.04Z"/><path d="M478.2,968.51c.03-1.59,1-2.71,2.56-3.34l-.02-.06c-1.39-.68-1.97-1.78-1.96-2.87.03-2,1.75-3.34,3.96-3.3,2.45.04,3.65,1.59,3.62,3.17-.02,1.07-.56,2.21-2.13,2.92v.06c1.56.65,2.52,1.77,2.49,3.31-.04,2.2-1.95,3.64-4.36,3.6-2.64-.04-4.21-1.64-4.18-3.49ZM485.01,968.54c.03-1.54-1.03-2.29-2.74-2.81-1.48.4-2.3,1.36-2.32,2.57-.08,1.28.87,2.42,2.49,2.45,1.54.03,2.54-.91,2.56-2.21ZM480.4,962.15c-.02,1.26.92,1.96,2.37,2.37,1.09-.35,1.94-1.12,1.96-2.26.02-1.01-.57-2.07-2.11-2.1-1.42-.02-2.21.9-2.23,1.99Z"/><path d="M496.86,965.23c.07,4.3-1.49,6.69-4.28,6.74-2.47.04-4.18-2.25-4.29-6.43-.07-4.24,1.72-6.6,4.29-6.64,2.66-.04,4.22,2.31,4.28,6.33ZM490,965.54c.05,3.28,1.09,5.13,2.65,5.11,1.75-.03,2.55-2.08,2.5-5.31-.05-3.11-.88-5.14-2.65-5.11-1.5.02-2.56,1.87-2.5,5.31Z"/><path d="M503,960.71c.05,1.57-1.19,2.64-2.53,2.68-1.52.05-2.58-1.07-2.62-2.43-.06-1.5,1.07-2.66,2.51-2.7,1.59-.05,2.6,1.13,2.64,2.45ZM498.9,960.93c.03.89.71,1.57,1.56,1.55.87-.03,1.51-.76,1.49-1.72-.02-.72-.48-1.62-1.58-1.59-1.01.03-1.49.92-1.47,1.76Z"/></g></g><g id="Layer_6"><g id="Bob_Cipher"><g opacity=".5"><polygon points="486 297 322.5 580.39 649.5 580.39 486 297" fill="none" stroke="#231f20" stroke-miterlimit="10"/><line x1="404.16" y1="438.86" x2="322.5" y2="391.75" fill="none" stroke="#231f20" stroke-miterlimit="10"/><line x1="649.5" y1="391.52" x2="567.47" y2="438.9" fill="none" stroke="#231f20" stroke-miterlimit="10"/><line x1="485.49" y1="675" x2="485.61" y2="580.39" fill="none" stroke="#231f20" stroke-miterlimit="10"/></g></g></g></svg>